<svg xmlns="http://www.w3.org/2000/svg" width="100%" viewBox="0 0 64 64" fill="none" class="contact-us_icon"><path d="M11.1882 11.2951C13.2429 9.17526 16.1478 8 19.5525 8H44.4475C47.8522 8 50.7571 9.17526 52.8118 11.2951C54.8652 13.4137 56 16.4041 56 19.9054V33.1003C56 36.6017 54.8652 39.592 52.8118 41.7106C50.9664 43.6146 48.4352 44.7565 45.472 44.9694H38.1318C37.9472 44.9694 37.7976 45.1215 37.7976 45.309C37.7976 45.4556 37.8901 45.5856 38.0269 45.6315L40.4813 46.4558C42.3144 47.0715 43.5525 48.8126 43.5525 50.7749V55.0903C43.5525 55.4244 43.3722 55.7317 43.083 55.8906C42.7937 56.0495 42.442 56.0344 42.167 55.8513L26.9935 45.7494C26.2647 45.2642 25.4125 45.0057 24.5413 45.0057H19.5525C16.1478 45.0057 13.2429 43.8305 11.1882 41.7106C9.13477 39.592 8 36.6017 8 33.1003V19.9054C8 16.4041 9.13477 13.4137 11.1882 11.2951Z" fill="currentColor"></path></svg>