<?xml version="1.0" encoding="utf-8"?>
<!-- Generator: Adobe Illustrator 26.3.1, SVG Export Plug-In . SVG Version: 6.00 Build 0)  -->
<svg version="1.1" id="Layer_1" xmlns="http://www.w3.org/2000/svg" xmlns:xlink="http://www.w3.org/1999/xlink" x="0px" y="0px"
	 viewBox="0 0 19 19" style="enable-background:new 0 0 19 19;" xml:space="preserve">
<style type="text/css">
	.st0{fill:#1E7AFF;}
</style>
<g>
	<path class="st0" d="M9.5,18.9c-0.8,0-1.6-0.3-2.1-0.9L1,11.6c-0.6-0.6-0.9-1.3-0.9-2.1S0.4,7.9,1,7.4L7.4,1c1.2-1.2,3.1-1.2,4.2,0
		L18,7.4c0.6,0.6,0.9,1.3,0.9,2.1s-0.3,1.6-0.9,2.1L11.6,18C11.1,18.6,10.3,18.9,9.5,18.9z M9.5,1.6c-0.4,0-0.8,0.2-1.1,0.4L2.1,8.4
		C1.8,8.7,1.6,9.1,1.6,9.5c0,0.4,0.2,0.8,0.4,1.1l6.4,6.4c0.6,0.6,1.6,0.6,2.1,0l6.4-6.4c0.3-0.3,0.4-0.7,0.4-1.1
		c0-0.4-0.2-0.8-0.4-1.1l-6.4-6.4C10.3,1.8,9.9,1.6,9.5,1.6z"/>
	<path class="st0" d="M8.1,12.5c-0.2,0-0.4-0.1-0.5-0.2l-2-2c-0.3-0.3-0.3-0.8,0-1.1s0.8-0.3,1.1,0l1.5,1.5l3.5-3.5
		c0.3-0.3,0.8-0.3,1.1,0s0.3,0.8,0,1.1l-4,4C8.5,12.4,8.3,12.5,8.1,12.5z"/>
</g>
</svg>
