<svg id="exAVqkS0GoB1" xmlns="http://www.w3.org/2000/svg" xmlns:xlink="http://www.w3.org/1999/xlink" viewBox="0 0 355 190" shape-rendering="geometricPrecision" text-rendering="geometricPrecision" project-id="9c3d610336984336a81b2df948e07b53" export-id="4c076b4a547c4768b526e2e107b56503" cached="false"><defs><linearGradient id="exAVqkS0GoB3-fill" x1="177.2416" y1="53.2607" x2="177.2416" y2="188.001" spreadMethod="pad" gradientUnits="userSpaceOnUse" gradientTransform="translate(0 0)"><stop id="exAVqkS0GoB3-fill-0" offset="43.5%" stop-color="#fff"/><stop id="exAVqkS0GoB3-fill-1" offset="89%" stop-color="rgba(255,255,255,0)"/></linearGradient><linearGradient id="exAVqkS0GoB3-stroke" x1="177.2416" y1="53.2607" x2="177.2416" y2="188.001" spreadMethod="pad" gradientUnits="userSpaceOnUse" gradientTransform="translate(0 0)"><stop id="exAVqkS0GoB3-stroke-0" offset="0%" stop-color="#eaeaeb"/><stop id="exAVqkS0GoB3-stroke-1" offset="100%" stop-color="rgba(234,234,235,0)"/></linearGradient><filter id="exAVqkS0GoB18-filter" x="-150%" width="400%" y="-150%" height="400%"><feGaussianBlur id="exAVqkS0GoB18-filter-drop-shadow-0-blur" in="SourceAlpha" stdDeviation="0,0"/><feOffset id="exAVqkS0GoB18-filter-drop-shadow-0-offset" dx="0" dy="0" result="tmp"/><feFlood id="exAVqkS0GoB18-filter-drop-shadow-0-flood" flood-color="rgba(0,0,0,0.03)"/><feComposite id="exAVqkS0GoB18-filter-drop-shadow-0-composite" operator="in" in2="tmp"/><feMerge id="exAVqkS0GoB18-filter-drop-shadow-0-merge" result="result"><feMergeNode id="exAVqkS0GoB18-filter-drop-shadow-0-merge-node-1"/><feMergeNode id="exAVqkS0GoB18-filter-drop-shadow-0-merge-node-2" in="SourceGraphic"/></feMerge></filter><linearGradient id="exAVqkS0GoB18-fill" x1="177.55" y1="12" x2="177.55" y2="190.101" spreadMethod="pad" gradientUnits="userSpaceOnUse" gradientTransform="translate(0 0)"><stop id="exAVqkS0GoB18-fill-0" offset="86.67%" stop-color="#fff"/><stop id="exAVqkS0GoB18-fill-1" offset="89%" stop-color="rgba(255,255,255,0)"/></linearGradient><linearGradient id="exAVqkS0GoB19-stroke" x1="177.55" y1="11.999" x2="177.55" y2="197.999" spreadMethod="pad" gradientUnits="userSpaceOnUse" gradientTransform="translate(0 0)"><stop id="exAVqkS0GoB19-stroke-0" offset="0%" stop-color="#e5e5e6"/><stop id="exAVqkS0GoB19-stroke-1" offset="100%" stop-color="rgba(229,229,230,0)"/></linearGradient><linearGradient id="exAVqkS0GoB21-fill" x1="77.3" y1="90.5" x2="278.3" y2="90.5" spreadMethod="pad" gradientUnits="userSpaceOnUse" gradientTransform="translate(0 0)"><stop id="exAVqkS0GoB21-fill-0" offset="0%" stop-color="rgba(221,229,241,0)"/><stop id="exAVqkS0GoB21-fill-1" offset="100%" stop-color="#bdcbe0"/></linearGradient><filter id="exAVqkS0GoB36-filter" x="-150%" width="400%" y="-150%" height="400%"><feGaussianBlur id="exAVqkS0GoB36-filter-drop-shadow-0-blur" in="SourceAlpha" stdDeviation="0,0"/><feOffset id="exAVqkS0GoB36-filter-drop-shadow-0-offset" dx="0" dy="0" result="tmp"/><feFlood id="exAVqkS0GoB36-filter-drop-shadow-0-flood" flood-color="rgba(0,0,0,0)"/><feComposite id="exAVqkS0GoB36-filter-drop-shadow-0-composite" operator="in" in2="tmp"/><feMerge id="exAVqkS0GoB36-filter-drop-shadow-0-merge" result="result"><feMergeNode id="exAVqkS0GoB36-filter-drop-shadow-0-merge-node-1"/><feMergeNode id="exAVqkS0GoB36-filter-drop-shadow-0-merge-node-2" in="SourceGraphic"/></feMerge></filter></defs><g id="exAVqkS0GoB2" transform="matrix(.682016 0 0 0.702285 56.378563 35.919314)"><path d="M337.5,188.5h.5v-.5-127.7c0-4.1-3-7.5-6.7-7.5h-308c-3.7,0-6.7,3.4-6.7,7.5v127.7.5h.4h320.5Z" fill="url(#exAVqkS0GoB3-fill)" stroke="url(#exAVqkS0GoB3-stroke)"/><path d="M24.9,131h54.4c.9,0,1.6.7,1.6,1.6v0c0,.9-.7,1.6-1.6,1.6h-54.4c-.9,0-1.6-.7-1.6-1.6v0c0-.9.7-1.6,1.6-1.6Z" fill="#c9d6eb"/><path d="M24.9,139.2h41.2c.9,0,1.6.7,1.6,1.6v0c0,.9-.7,1.6-1.6,1.6h-41.2c-.9,0-1.6-.7-1.6-1.6v0c0-.8.7-1.6,1.6-1.6Z" fill="#c9d6eb"/><path d="M23.8,66c0-2.2,1.8-4,4-4h86.5c2.2,0,4,1.8,4,4v39c0,2.2-1.8,4-4,4h-86.5c-2.2,0-4-1.8-4-4v-39Z" fill="#c9d6eb"/><path d="M23.3,120c0-2.2,1.8-4,4-4h86.5c2.2,0,4,1.8,4,4v1c0,2.2-1.8,4-4,4h-86.5c-2.2,0-4-1.8-4-4v-1Z" fill="#c9d6eb"/><path d="M257.3,77h61.5c2.2,0,4,1.8,4,4v2c0,2.2-1.8,4-4,4h-61.5c-2.2,0-4-1.8-4-4v-2c0-2.2,1.8-4,4-4Z" fill="#c9d6eb"/><path d="M255.3,94h54c1.1,0,2,.9,2,2v0c0,1.1-.9,2-2,2h-54c-1.1,0-2-.9-2-2v0c0-1.1.9-2,2-2Z" fill="#c9d6eb"/><path d="M255.3,105h41c1.1,0,2,.9,2,2v0c0,1.1-.9,2-2,2h-41c-1.1,0-2-.9-2-2v0c0-1.1.9-2,2-2Z" fill="#c9d6eb"/><path d="M288.8,120v0c1.9,0,3.5,1.6,3.5,3.5v0c0,1.9-1.6,3.5-3.5,3.5v0c-1.9,0-3.5-1.6-3.5-3.5v0c0-1.9,1.6-3.5,3.5-3.5Z" fill="#c9d6eb"/><path d="M299.8,120v0c1.9,0,3.5,1.6,3.5,3.5v0c0,1.9-1.6,3.5-3.5,3.5v0c-1.9,0-3.5-1.6-3.5-3.5v0c0-1.9,1.6-3.5,3.5-3.5Z" fill="#c9d6eb"/><path d="M309.8,120v0c1.9,0,3.5,1.6,3.5,3.5v0c0,1.9-1.6,3.5-3.5,3.5v0c-1.9,0-3.5-1.6-3.5-3.5v0c0-1.9,1.6-3.5,3.5-3.5Z" fill="#dde5f1" stroke="#dde5f1" stroke-width="2"/><path d="M309.8,120.5v0c1.7,0,3,1.3,3,3v0c0,1.7-1.3,3-3,3v0c-1.7,0-3-1.3-3-3v0c0-1.7,1.3-3,3-3Z" fill="#c9d6eb" stroke="#fff"/><path d="M277.3,138h17c2.2,0,4,1.8,4,4v2c0,2.2-1.8,4-4,4h-17c-2.2,0-4-1.8-4-4v-2c0-2.2,1.8-4,4-4Z" fill="#dbe3ef"/></g><g id="exAVqkS0GoB16"><g><path id="exAVqkS0GoB18" d="M67.7,18.7c0-3.7,3.1-6.7,7-6.7h205.7c3.9,0,7,3,7,6.7v171.4h-219.7v-171.4Z" filter="url(#exAVqkS0GoB18-filter)" fill="url(#exAVqkS0GoB18-fill)"/><path d="M287.4,198.5h.5v-.5-179c0-4.1-3.4-7.5-7.5-7.5h-205.7c-4.1,0-7.5,3.4-7.5,7.5v179v.5h.5h219.7Z" fill="none" stroke="url(#exAVqkS0GoB19-stroke)"/><path d="M277.3,18.8v0c1.4,0,2.5,1.1,2.5,2.5v0c0,1.4-1.1,2.5-2.5,2.5v0c-1.4,0-2.5-1.1-2.5-2.5v0c0-1.4,1.1-2.5,2.5-2.5Z" opacity="0.5" fill="#c9d6eb"/></g><path d="M86.3,32h183c5,0,9,4,9,9v99c0,5-4,9-9,9h-183c-5,0-9-4-9-9v-99c0-5,4-9,9-9Z" opacity="0.5" fill="url(#exAVqkS0GoB21-fill)"/><path d="M90.9,83.1h54.4c.9,0,1.6.7,1.6,1.6v0c0,.9-.7,1.6-1.6,1.6h-54.4c-.9,0-1.6-.7-1.6-1.6v0c0-.9.7-1.6,1.6-1.6Z" opacity="0.5" fill="#c9d6eb"/><path d="M90.9,91.3h41.2c.9,0,1.6.7,1.6,1.6v0c0,.9-.7,1.6-1.6,1.6h-41.2c-.9,0-1.6-.7-1.6-1.6v0c0-.9.7-1.6,1.6-1.6Z" opacity="0.5" fill="#c9d6eb"/><path d="M93.3,68h61c2.2,0,4,1.8,4,4v2c0,2.2-1.8,4-4,4h-61c-2.2,0-4-1.8-4-4v-2c0-2.2,1.8-4,4-4Z" fill="#c9d6eb"/><path d="M93.3,109h17c2.2,0,4,1.8,4,4v2c0,2.2-1.8,4-4,4h-17c-2.2,0-4-1.8-4-4v-2c0-2.2,1.8-4,4-4Z" fill="#c9d6eb"/><path d="M210.3,40c-3.3,0-6,2.7-6,6v25c0,3.3-2.7,6-6,6h-23c-3.3,0-6,2.7-6,6v51c0,3.3,2.7,6,6,6h89c3.3,0,6-2.7,6-6v-46-5-37c0-3.3-2.7-6-6-6h-54Z" clip-rule="evenodd" fill="#fff" fill-rule="evenodd"/><path d="M214.3,55c0-2.8,2.2-5,5-5h36c2.8,0,5,2.2,5,5v71c0,2.8-2.2,5-5,5h-36c-2.8,0-5-2.2-5-5v-71v0Z" fill="#c9d6eb"/><path d="M216.3,55c0-1.7,1.3-3,3-3h36c1.7,0,3,1.3,3,3v71c0,1.7-1.3,3-3,3h-36c-1.7,0-3-1.3-3-3v-71v0Z" fill="#fff"/><path d="M219.3,62c0-.6.4-1,1-1h34c.6,0,1,.4,1,1v22c0,.6-.4,1-1,1h-34c-.6,0-1-.4-1-1v-22Z" transform="translate(0 12)" fill="#c9d6eb"/><path d="M219.3,62c0-.6.4-1,1-1h34c.6,0,1,.4,1,1v6c0,.6-.4,1-1,1h-34c-.6,0-1-.4-1-1v-6Z" fill="#c9d6eb"/><path d="M219.3,90c0-.6.4-1,1-1h34c.6,0,1,.4,1,1v23c0,.6-.4,1-1,1h-34c-.6,0-1-.4-1-1v-23Z" transform="translate(0 12)" fill="#c9d6eb"/><circle r="2" transform="translate(237.6 56.5)" opacity="0.5" fill="#c9d6eb"/><path d="M79,18.6v0c1.4,0,2.5,1.1,2.5,2.5v0c0,1.4-1.1,2.5-2.5,2.5v0c-1.4,0-2.5-1.1-2.5-2.5v0c0-1.4,1.1-2.5,2.5-2.5Z" opacity="0.5" fill="#c9d6eb"/><path d="M88,18.6v0c1.4,0,2.5,1.1,2.5,2.5v0c0,1.4-1.1,2.5-2.5,2.5v0c-1.4,0-2.5-1.1-2.5-2.5v0c0-1.4,1.1-2.5,2.5-2.5Z" opacity="0.5" fill="#c9d6eb"/><g id="exAVqkS0GoB35" transform="matrix(.9 0 0 0.9 7.2 11)"><path id="exAVqkS0GoB36" d="M182.3,94.7h40c1.1,0,2,.9,2,2v25c0,1.1-.9,2-2,2h-40c-1.1,0-2-.9-2-2v-25c0-1.1.9-2,2-2Z" filter="url(#exAVqkS0GoB36-filter)" fill="#fff"/><path d="M185.8,100.7h12c.8,0,1.5.7,1.5,1.5v0c0,.8-.7,1.5-1.5,1.5h-12c-.8,0-1.5-.7-1.5-1.5v0c0-.9.6-1.5,1.5-1.5Z" fill="#c9d6eb"/><path d="M185.8,107.7h33c.8,0,1.5.7,1.5,1.5v0c0,.8-.7,1.5-1.5,1.5h-33c-.8,0-1.5-.7-1.5-1.5v0c0-.9.6-1.5,1.5-1.5Z" fill="#c9d6eb"/><path d="M185.8,114.7h33c.8,0,1.5.7,1.5,1.5v0c0,.8-.7,1.5-1.5,1.5h-33c-.8,0-1.5-.7-1.5-1.5v0c0-.9.6-1.5,1.5-1.5Z" fill="#c9d6eb"/></g><path d="M97,18.6v0c1.4,0,2.5,1.1,2.5,2.5v0c0,1.4-1.1,2.5-2.5,2.5v0c-1.4,0-2.5-1.1-2.5-2.5v0c0-1.4,1.1-2.5,2.5-2.5Z" opacity="0.5" fill="#c9d6eb"/><path d="M110.5,18.6h152c1.4,0,2.5,1.1,2.5,2.5v0c0,1.4-1.1,2.5-2.5,2.5h-152c-1.4,0-2.5-1.1-2.5-2.5v0c0-1.4,1.1-2.5,2.5-2.5Z" opacity="0.5" fill="#c9d6eb"/><path d="M95.1,161.4h2c2.2,0,4,1.8,4,4v2c0,2.2-1.8,4-4,4h-2c-2.2,0-4-1.8-4-4v-2c0-2.2,1.8-4,4-4Z" fill="#c9d6eb"/><path d="M81.1,175.4h30c.6,0,1,.4,1,1v3c0,.6-.4,1-1,1h-30c-.6,0-1-.4-1-1v-3c0-.5.4-1,1-1Z" fill="#c9d6eb"/><path d="M81.1,184.4h30c.6,0,1,.4,1,1v1c0,.6-.4,1-1,1h-30c-.6,0-1-.4-1-1v-1c0-.5.4-1,1-1Z" fill="#c9d6eb"/><path d="M149.4,161.4h2c2.2,0,4,1.8,4,4v2c0,2.2-1.8,4-4,4h-2c-2.2,0-4-1.8-4-4v-2c0-2.2,1.8-4,4-4Z" fill="#c9d6eb"/><path d="M135.4,175.4h30c.6,0,1,.4,1,1v3c0,.6-.4,1-1,1h-30c-.6,0-1-.4-1-1v-3c0-.5.5-1,1-1Z" fill="#c9d6eb"/><path d="M135.4,184.4h30c.6,0,1,.4,1,1v1c0,.6-.4,1-1,1h-30c-.6,0-1-.4-1-1v-1c0-.5.5-1,1-1Z" fill="#c9d6eb"/><path d="M203.8,161.4h2c2.2,0,4,1.8,4,4v2c0,2.2-1.8,4-4,4h-2c-2.2,0-4-1.8-4-4v-2c0-2.2,1.8-4,4-4Z" fill="#c9d6eb"/><path d="M189.8,175.4h30c.6,0,1,.4,1,1v3c0,.6-.4,1-1,1h-30c-.6,0-1-.4-1-1v-3c0-.5.4-1,1-1Z" fill="#c9d6eb"/><path d="M189.8,184.4h30c.6,0,1,.4,1,1v1c0,.6-.4,1-1,1h-30c-.6,0-1-.4-1-1v-1c0-.5.4-1,1-1Z" fill="#c9d6eb"/><path d="M258.1,161.4h2c2.2,0,4,1.8,4,4v2c0,2.2-1.8,4-4,4h-2c-2.2,0-4-1.8-4-4v-2c0-2.2,1.8-4,4-4Z" fill="#c9d6eb"/><path d="M244.1,175.4h30c.6,0,1,.4,1,1v3c0,.6-.4,1-1,1h-30c-.6,0-1-.4-1-1v-3c0-.5.4-1,1-1Z" fill="#c9d6eb"/><path d="M244.1,184.4h30c.6,0,1,.4,1,1v1c0,.6-.4,1-1,1h-30c-.6,0-1-.4-1-1v-1c0-.5.4-1,1-1Z" fill="#c9d6eb"/></g>
</svg>
