<svg id="eoYD1GJeWFX1" xmlns="http://www.w3.org/2000/svg" xmlns:xlink="http://www.w3.org/1999/xlink" viewBox="0 0 355 190" shape-rendering="geometricPrecision" text-rendering="geometricPrecision" project-id="77b44fc24be1414cb34d4452f64ca523" export-id="8e0c89cb1c3d4e69aa9281594facc25c" cached="false"><defs><filter id="eoYD1GJeWFX4-filter" x="-150%" width="400%" y="-150%" height="400%"><feGaussianBlur id="eoYD1GJeWFX4-filter-drop-shadow-0-blur" in="SourceAlpha" stdDeviation="0,0"/><feOffset id="eoYD1GJeWFX4-filter-drop-shadow-0-offset" dx="0" dy="0" result="tmp"/><feFlood id="eoYD1GJeWFX4-filter-drop-shadow-0-flood" flood-color="rgba(0,0,0,0.03)"/><feComposite id="eoYD1GJeWFX4-filter-drop-shadow-0-composite" operator="in" in2="tmp"/><feMerge id="eoYD1GJeWFX4-filter-drop-shadow-0-merge" result="result"><feMergeNode id="eoYD1GJeWFX4-filter-drop-shadow-0-merge-node-1"/><feMergeNode id="eoYD1GJeWFX4-filter-drop-shadow-0-merge-node-2" in="SourceGraphic"/></feMerge></filter><linearGradient id="eoYD1GJeWFX4-fill" x1="177.813" y1="9.054" x2="177.813" y2="187.155" spreadMethod="pad" gradientUnits="userSpaceOnUse" gradientTransform="translate(0 0)"><stop id="eoYD1GJeWFX4-fill-0" offset="86.67%" stop-color="#fff"/><stop id="eoYD1GJeWFX4-fill-1" offset="89%" stop-color="rgba(255,255,255,0)"/></linearGradient><linearGradient id="eoYD1GJeWFX5-stroke" x1="177.813" y1="9.0531" x2="177.813" y2="195.053" spreadMethod="pad" gradientUnits="userSpaceOnUse" gradientTransform="translate(0 0)"><stop id="eoYD1GJeWFX5-stroke-0" offset="0%" stop-color="#e5e5e6"/><stop id="eoYD1GJeWFX5-stroke-1" offset="100%" stop-color="rgba(229,229,230,0)"/></linearGradient><linearGradient id="eoYD1GJeWFX33-fill" x1="0" y1="0.5" x2="1" y2="0.5" spreadMethod="pad" gradientUnits="objectBoundingBox" gradientTransform="translate(0 0)"><stop id="eoYD1GJeWFX33-fill-0" offset="0%" stop-color="rgba(189,203,224,0.05)"/><stop id="eoYD1GJeWFX33-fill-1" offset="46%" stop-color="#bdcbe0"/></linearGradient></defs><g id="eoYD1GJeWFX2" transform="matrix(.97 0 0 0.97 5.3355 3.063)"><g><path id="eoYD1GJeWFX4" d="M16.5,15.8c0-3.7,3.1-6.7,7-6.7h308.7c3.9,0,7,3,7,6.7v171.4h-322.7v-171.4Z" filter="url(#eoYD1GJeWFX4-filter)" fill="url(#eoYD1GJeWFX4-fill)"/><path d="M339.2,195.6h.5v-.5-179c0-4.1-3.4-7.5-7.5-7.5h-308.7C19.4,8.6,16,12,16,16.1v179v.5h.5h322.7Z" fill="none" stroke="url(#eoYD1GJeWFX5-stroke)"/></g><path id="eoYD1GJeWFX6" d="M56.7,124.1h66.6c2,0,3.6,1.6,3.6,3.5v0c0,1.9-1.7,3.5-3.6,3.5h-66.6c-2,0-3.6-1.6-3.6-3.5v0c0-2,1.6-3.5,3.6-3.5Z" fill="#c9d6eb"/><path d="M245.3,124.1v0c2,0,3.6,1.6,3.6,3.5v0c0,1.9-1.7,3.5-3.6,3.5v0c-2,0-3.6-1.6-3.6-3.5v0c0-2,1.6-3.5,3.6-3.5Z" fill="#c9d6eb"/><path d="M264.2,30.4h52.6c2,0,3.6,1.6,3.6,3.5v0c0,1.9-1.7,3.5-3.6,3.5h-52.6c-2,0-3.6-1.6-3.6-3.5v0c0-2,1.6-3.5,3.6-3.5Z" fill="#c9d6eb"/><path d="M27.8,29h11c2.2,0,4,1.9,4,4.3v132.3c0,2.3-1.8,4.3-4,4.3h-11c-2.2,0-4-1.9-4-4.3v-132.3c0-2.4,1.7-4.3,4-4.3Z" transform="translate(0 0.122689)" fill="#c9d6eb"/><path d="M32.6,68h1.4c1.1,0,2,.9,2,2v1.4c0,1.1-.9,2-2,2h-1.4c-1.1,0-2-.9-2-2v-1.4c0-1.1.9-2,2-2Z" transform="translate(.3 0)" fill="#fff"/><path id="eoYD1GJeWFX11" d="M32.1,77.7h2.9c2.2,0,4.1,1.8,4.1,4.1v2.8c0,2.2-1.8,4.1-4.1,4.1h-2.8c-2.2,0-4.1-1.8-4.1-4.1v-2.8c0-2.3,1.8-4.1,4-4.1Z" fill="#fff"/><path id="eoYD1GJeWFX12" d="M32.6,93.4h1.4c1.1,0,2,.9,2,2v1.4c0,1.1-.9,2-2,2h-1.4c-1.1,0-2-.9-2-2v-1.4c0-1.1.9-2,2-2Z" transform="translate(.3 0)" fill="#fff"/><path id="eoYD1GJeWFX13" d="M32.6,106.8h1.4c1.1,0,2,.9,2,2v1.4c0,1.1-.9,2-2,2h-1.4c-1.1,0-2-.9-2-2v-1.4c0-1.1.9-2,2-2Z" transform="translate(.3 0)" fill="#fff"/><path d="M32.6,120.1h1.4c1.1,0,2,.9,2,2v1.4c0,1.1-.9,2-2,2h-1.4c-1.1,0-2-.9-2-2v-1.4c0-1.1.9-2,2-2Z" transform="translate(.3 0)" fill="#fff"/><path id="eoYD1GJeWFX15" d="M32.8,80.4h1.4c1.1,0,2,.9,2,2v1.4c0,1.1-.9,2-2,2h-1.4c-1.1,0-2-.9-2-2v-1.4c0-1.1.9-2,2-2Z" transform="translate(.100001 0)" fill="#c9d6eb"/><path d="M26.3,15.1v0c1.4,0,2.5,1.1,2.5,2.5v0c0,1.4-1.1,2.5-2.5,2.5v0c-1.4,0-2.5-1.1-2.5-2.5v0c0-1.4,1.1-2.5,2.5-2.5Z" opacity="0.5" fill="#c9d6eb"/><path d="M35.3,15.1v0c1.4,0,2.5,1.1,2.5,2.5v0c0,1.4-1.1,2.5-2.5,2.5v0c-1.4,0-2.5-1.1-2.5-2.5v0c0-1.4,1.1-2.5,2.5-2.5Z" opacity="0.5" fill="#c9d6eb"/><path d="M44.3,15.1v0c1.4,0,2.5,1.1,2.5,2.5v0c0,1.4-1.1,2.5-2.5,2.5v0c-1.4,0-2.5-1.1-2.5-2.5v0c0-1.4,1.1-2.5,2.5-2.5Z" opacity="0.5" fill="#c9d6eb"/><path d="M62.9,15.1h250.1c1.5,0,2.6,1.1,2.6,2.5v0c0,1.4-1.2,2.5-2.6,2.5h-250.1c-1.5,0-2.6-1.1-2.6-2.5v0c0-1.4,1.2-2.5,2.6-2.5Z" opacity="0.5" fill="#c9d6eb"/><path d="M326.3,15.1v0c1.4,0,2.5,1.1,2.5,2.5v0c0,1.4-1.1,2.5-2.5,2.5v0c-1.4,0-2.5-1.1-2.5-2.5v0c0-1.4,2.5-2.5,2.5-2.5Z" opacity="0.5" fill="#c9d6eb"/><path d="M321.4,58.1v0c1.5,0,2.7,1.2,2.7,2.7v41.6c0,1.5-1.2,2.7-2.7,2.7v0c-1.5,0-2.7-1.2-2.7-2.7v-41.6c0-1.5,1.2-2.7,2.7-2.7Z" opacity="0.5" fill="#c9d6eb"/><path d="M286.3,58.1v0c1.5,0,2.7,1.2,2.7,2.7v39.9c0,1.5-1.2,2.7-2.7,2.7v0c-1.5,0-2.7-1.2-2.7-2.7v-39.9c0-1.5,1.2-2.7,2.7-2.7Z" opacity="0.5" fill="#c9d6eb"/><path d="M309.9,58.1v0c1.5,0,2.7,1.2,2.7,2.7v42.6c0,1.5-1.2,2.7-2.7,2.7v0c-1.5,0-2.7-1.2-2.7-2.7v-42.6c0-1.5,1.2-2.7,2.7-2.7Z" opacity="0.5" fill="#c9d6eb"/><path d="M298.2,58.1v0c1.5,0,2.7,1.2,2.7,2.7v42.7c0,1.5-1.2,2.7-2.7,2.7v0c-1.5,0-2.7-1.2-2.7-2.7v-42.7c0-1.5,1.2-2.7,2.7-2.7Z" opacity="0.5" fill="#c9d6eb"/><path d="M275.1,58.1v0c1.5,0,2.7,1.2,2.7,2.7v43c0,1.5-1.2,2.7-2.7,2.7v0c-1.5,0-2.7-1.2-2.7-2.7v-43c0-1.5,1.2-2.7,2.7-2.7Z" opacity="0.5" fill="#c9d6eb"/><path d="M263.6,58.1v0c1.5,0,2.7,1.2,2.7,2.7v41.3c0,1.5-1.2,2.7-2.7,2.7v0c-1.5,0-2.7-1.2-2.7-2.7v-41.3c0-1.5,1.2-2.7,2.7-2.7Z" opacity="0.5" fill="#c9d6eb"/><path id="eoYD1GJeWFX27" d="M263.6,114v0c-1.5,0-2.7-1.2-2.7-2.7v-33.5c0-1.5,1.2-2.7,2.7-2.7v0c1.5,0,2.7,1.2,2.7,2.7v33.6c0,1.4-1.2,2.6-2.7,2.6Z" fill="#c9d6eb"/><path id="eoYD1GJeWFX28" d="M298.2,114v0c-1.5,0-2.7-1.2-2.7-2.7v-11.8c0-1.5,1.2-2.7,2.7-2.7v0c1.5,0,2.7,1.2,2.7,2.7v11.9c0,1.4-1.2,2.6-2.7,2.6Z" fill="#c9d6eb"/><path id="eoYD1GJeWFX29" d="M275.1,114v0c-1.5,0-2.7-1.2-2.7-2.7v-20.6c0-1.5,1.2-2.7,2.7-2.7v0c1.5,0,2.7,1.2,2.7,2.7v20.6c0,1.5-1.2,2.7-2.7,2.7Z" fill="#c9d6eb"/><path id="eoYD1GJeWFX30" d="M286.3,114v0c-1.5,0-2.7-1.2-2.7-2.7v-14.6c0-1.5,1.2-2.7,2.7-2.7v0c1.5,0,2.7,1.2,2.7,2.7v14.7c0,1.4-1.2,2.6-2.7,2.6Z" fill="#c9d6eb"/><path id="eoYD1GJeWFX31" d="M309.9,114v0c-1.5,0-2.7-1.2-2.7-2.7v-25c0-1.5,1.2-2.7,2.7-2.7v0c1.5,0,2.7,1.2,2.7,2.7v25c-.1,1.5-1.3,2.7-2.7,2.7Z" fill="#c9d6eb"/><path id="eoYD1GJeWFX32" d="M321.4,114v0c-1.5,0-2.7-1.2-2.7-2.7v-33.3c0-1.5,1.2-2.7,2.7-2.7v0c1.5,0,2.7,1.2,2.7,2.7v33.3c0,1.5-1.2,2.7-2.7,2.7Z" fill="#c9d6eb"/><path d="M59,29.6h184.5c3.1,0,5.6,2.5,5.6,5.6v74.8c0,3.1-2.5,5.6-5.6,5.6h-184.5c-3.1,0-5.6-2.5-5.6-5.6v-74.8c0-3.1,2.5-5.6,5.6-5.6Z" opacity="0.5" fill="url(#eoYD1GJeWFX33-fill)"/><g><circle r="7" transform="translate(151.1 151)" fill="#c9d6eb"/><g><path d="M202.4,150.5h-38.9c-1.3,0-2.4-1.1-2.4-2.4v0c0-1.3,1.1-2.4,2.4-2.4h38.9c1.3,0,2.4,1.1,2.4,2.4v0c-.1,1.4-1.1,2.4-2.4,2.4Z" fill="#c9d6eb"/><path d="M193.8,156.2h-31.4c-.7,0-1.3-.6-1.3-1.3v0c0-.7.6-1.3,1.3-1.3h31.4c.7,0,1.3.6,1.3,1.3v0c0,.7-.6,1.3-1.3,1.3Z" fill="#c9d6eb"/></g></g><g><g><path id="eoYD1GJeWFX41" d="M85.7,85.6h-12.7c-1.3,0-2.4-1.1-2.4-2.4v0c0-1.3,1.1-2.4,2.4-2.4h12.7c1.3,0,2.4,1.1,2.4,2.4v0c0,1.4-1.1,2.4-2.4,2.4Z" fill="#c9d6eb"/><path id="eoYD1GJeWFX42" d="M86.7,91.3h-14.7c-.7,0-1.3-.6-1.3-1.3v0c0-.7.6-1.3,1.3-1.3h14.7c.7,0,1.3.6,1.3,1.3v0c-.1.7-.6,1.3-1.3,1.3Z" fill="#c9d6eb"/><path d="M65.3,91.1h-5.2c-1.3,0-2.4-1.1-2.4-2.4v-5.2c0-1.3,1.1-2.4,2.4-2.4h5.2c1.3,0,2.4,1.1,2.4,2.4v5.2c0,1.3-1.1,2.4-2.4,2.4Z" fill="#c9d6eb"/></g></g><g><g><path id="eoYD1GJeWFX46" d="M85,104.3h-12c-1.3,0-2.4-1.1-2.4-2.4v0c0-1.3,1.1-2.4,2.4-2.4h12c1.3,0,2.4,1.1,2.4,2.4v0c-.1,1.3-1.1,2.4-2.4,2.4Z" fill="#c9d6eb"/><path id="eoYD1GJeWFX47" d="M85,109.9h-13c-.7,0-1.3-.6-1.3-1.3v0c0-.7.6-1.3,1.3-1.3h13c.7,0,1.3.6,1.3,1.3v0c0,.8-.6,1.3-1.3,1.3Z" fill="#c9d6eb"/><path d="M65.3,109.8h-5.2c-1.3,0-2.4-1.1-2.4-2.4v-5.2c0-1.3,1.1-2.4,2.4-2.4h5.2c1.3,0,2.4,1.1,2.4,2.4v5.2c0,1.3-1.1,2.4-2.4,2.4Z" fill="#c9d6eb"/></g></g><circle r="7" transform="translate(60.1 151)" fill="#c9d6eb"/><path d="M297.3,47.1h-33.9c-1.3,0-2.4-1.1-2.4-2.4v0c0-1.3,1.1-2.4,2.4-2.4h33.9c1.3,0,2.4,1.1,2.4,2.4v0c0,1.4-1.1,2.4-2.4,2.4Z" fill="#c9d6eb"/><g><path d="M111.4,150.5h-38.8c-1.3,0-2.4-1.1-2.4-2.4v0c0-1.3,1.1-2.4,2.4-2.4h38.9c1.3,0,2.4,1.1,2.4,2.4v0c-.1,1.4-1.2,2.4-2.5,2.4Z" fill="#c9d6eb"/><path d="M102.9,156.2h-31.4c-.7,0-1.3-.6-1.3-1.3v0c0-.7.6-1.3,1.3-1.3h31.4c.7,0,1.3.6,1.3,1.3v0c0,.7-.6,1.3-1.3,1.3Z" fill="#c9d6eb"/></g><path d="M240.1,34.8h-101.7c-.2,0-.4,0-.6.1h-75.5c-2.2,0-4,1.8-4,4v9.3c0,2.2,1.8,4,4,4h60c7,0,12.6,5.7,12.6,12.6v41.7c0,1.9,1.5,3.4,3.4,3.4h101.7c1.9,0,3.4-1.5,3.4-3.4v-68.3c.1-1.9-1.4-3.4-3.3-3.4Z" fill="#fefefe"/><g><path d="M321.5,169.9h-57.5c-3.1,0-5.6-2.5-5.6-5.6v-34.6c0-3.1,2.5-5.6,5.6-5.6h57.5c3.1,0,5.6,2.5,5.6,5.6v34.6c0,3.1-2.5,5.6-5.6,5.6Z" fill="#c9d6eb"/><path d="M319,162.8h-52.3c-1.6,0-2.9-1.3-2.9-2.9v-13.7c0-1.6,1.3-2.9,2.9-2.9h52.3c1.6,0,2.9,1.3,2.9,2.9v13.8c0,1.5-1.3,2.8-2.9,2.8Z" fill="#fdfdfd"/><g><g><path d="M294.7,137h-27.9c-1.3,0-2.4-1.1-2.4-2.4v0c0-1.3,1.1-2.4,2.4-2.4h27.9c1.3,0,2.4,1.1,2.4,2.4v0c0,1.4-1.1,2.4-2.4,2.4Z" fill="#fefefe"/></g></g></g><path d="M226.1,70.8c.2.4,0,.4-.1.3-.2,0-.2.5-.2.7s.3.5.2.5h-.2c0,0-.2.3-.2.2s.2-.4.1-.7c0-.3,0-.3,0-.5s.1-1,0-1.3c0-.3.2-.7.3-.9s.1.3.1.8c0,0,0,.4,0,.9Zm.6,2.6c0,.2-.3.2-.3.1-.1.1-.2.2-.3.1s-.3-.1-.4,0s.1.6.2.9-.1.6-.3.8s0,.6-.1.7-.8.2-1,.4c-.3.2-.5.3-.5,0s-.6,0-.7,0-.2.1-.2.2c0,0-.1.3-.1.5-.1.3-.3.3-.3.2-.1-.1,0-.3-.1-.4s-.2,0-.2-.1l.2-.2c0,0,.2-.1.4-.3s.6-.2.8-.3.3-.2.4-.4c.1-.1.4-.2.6-.2s.3-.7.3-.8s0-.3.1-.4-.1-.2-.1-.4.3-.4.5-.5.1-.5.1-.7c.1-.1.4.3.4.4c0,0,.2.1.3.1s.3.1.3.3c0,0,0,.1,0,0Zm-3.3,3.1c.5,0,.4.2.3.3-.1,0-.2,0-.2,0s-.1.1-.1.2-.2,0-.2,0s0-.2.1-.3c0,0,0-.2.1-.2ZM227,73c.1,0-.1.2-.2.3s.1-.2.2-.3Zm.7-.4c0,0-.4.3-.5.3-.1-.1.2-.3.3-.3h.2Zm.3-.3c0,0-.1.2-.2.2s0-.1.1-.2h.1Zm.6-.2h-.2l.1-.1.1.1Zm-2.6,17c.2.1.2.7.4.9.2.1.4.5.5.8.1.4.5.7.8,1s.8,1,1,1.3.5,1.2.2,1.9-.7,1.4-.8,1.8c-.1.3-.1.4-.5.5s-.8.2-1.2.2-1.1-.3-1.4-.9-.3-.8-.5-.7-.3.7-.6.1-1-1.1-2-.6-.8.5-1.2.6-.8,0-1.2.3-1,0-.9-.3c.1-.2.1-1.1-.3-1.9s-.3-.7-.2-1-.1-.6.3-.7c.3-.2,1-.4,1.4-.5s.7-.4.7-.6s0-.3.2-.4.6-.4.9-.6c.2-.2.5-.1.6,0s.2.3.3.1.2-.6.5-.7s1.5-.1,1.4.1-.4.5-.3.6.9.8,1.1.8c.1,0,.5.1.5-.4s.1-1.2.1-1.4.1-.4.2-.3Zm1.1,9.2c.3,0,.3-.1.4.2c0,.3-.4.6-.6.6s-.2-.3-.3-.6c-.1-.1-.1-.3,0-.3.2-.1.3.1.5.1Zm7.2-2.1c.1,0,.2.1.3.2s.2.3.2.5c0,.3.3.2.6.2s.1.4-.1.6c-.2.1-.3.5-.4.7s-.3.1-.3,0c.3-.6-.6-.4-.2-.9.1-.2.1-.6-.4-1.3-.2-.2.1,0,.3,0Zm-.2,2c.2.1.1.4.1.7c0,.2-.4.5-.6.8-.2.4-.3.6-.8.7-.4.1-.3-.6-.2-.7s.5-.7.8-.7c.2,0,.2-.3.3-.6c0-.2.2-.3.4-.2Zm-64.7-15c.3.1.5.4,1.2.3s1.5.8,1.9.9s1.7.6,1.8,1c.2.5.2.9.8,1.1s2,.5,2.4.6c.3.1,1.6.6.9,1.6s-.9,1.2-1.1,2.2-.2,1.4-1.4,1.9-.9,1-1.4,1.7c-.4.7-.8,1.5-1.2,1.6-.4.2-.5,1-.9,1.2s-.8,0-1,.5c-.5,1.1-.8,1.4-1,1.7s-.5.3-.3.7.2.6-.1,1-.5,1.6-.1,1.9c.3.3,1,.8.4.9-.7.1-2.4-.4-2.5-1.7s.2-4.5.7-5.9c.4-1.4,1.3-4.9,0-5.6-1.3-.8-1.8-2.5-2-2.7s-.2-.9-.2-1.1.1-.9.3-1c.3-.2.6-.7.6-1.2-.1-.5.5-.9.6-1.1.2-.2.5-.6.9-.6.5,0,.7.1.7.1Zm2.7,19.1c.1,0,.2-.1.4,0c.1,0,.2,0,.2.1c0,0,0,.1-.1.2-.3.2-.7.2-1,0-.1-.1,0-.2.1-.3s.3-.1.4,0Zm48.4-23.1c.1,0-.1.3-.1.4s-.2.6-.3.6c0,0-.1-.2-.1-.4s.2-.4.3-.5c0,0,.1,0,.2-.1Zm0,2c.2,0,.2.2.2.4s-.2.5-.2.6.3.3.4.3c.2,0,.3.3.3.5s-.4.1-.3,0-.1-.2-.1-.3c-.1-.1-.4,0-.6,0-.1,0-.1-.1-.2-.3-.2-.2-.2-.4-.1-.6c0-.1.1-.3.1-.4.1-.1.2-.2.3-.2c0,0,.1,0,.2,0Zm-.6,2.2c0,.1-.5.6-.7.6s.3-.5.5-.6c0,0,.2-.1.2,0Zm1.5.3c.1,0,.3.1.3.3c0,.1,0,.4,0,.5s-.1-.1-.2-.1c-.1.1,0,.1,0,.2s-.1.1-.2,0-.1-.3-.3-.4c-.04647-.04647-.13613-.14955-.2188-.19019.128.02249.3188.06994.3188-.00981c0-.1.2-.2.2-.2l.1-.1Zm-.6188.30981C220.7487,84.0041,220.72025,84,220.7,84c-.00585,0-.01204.00068-.01852.00199.02917-.01571.06379-.00984.09972.00782ZM220.6,84.3c0,.2-.2.2-.2,0c0-.09415.17728-.11597.28148-.13704-.04815.02593-.08148.07037-.08148.13704Zm-1.5,0c.2,0,.2.2.5.4.4.1-.2.4-.3.6s.2.5.3.6-.1.2-.3.3-.1.3-.2.7c-.1.3-.4.3-.6.3-.2-.1-.3-.2-.8-.2s-.5-.1-.5-.3c0-.1-.2-.4-.2-.7c0-.2,0-.3.3-.3s.4-.1.6-.3c.2-.1.8-.6,1.1-.9l.1-.2Zm-4.6,1.1c.3.3.9.7,1,.8c0,.1.1.3.3.4s.3.1.5.3c.2.1-.2.2-.1.6s-.4.4-.7.2-1-1.4-1.3-1.8-.5-.6-.8-.9-.1-.3.1-.3c0,0,.6.1,1,.7Zm8.5,1.1c.2-.1.8-.2.8.1s.1.6.2.5c.2,0,.3-.2.5-.3.1-.1.5-.1,1,.1s1.1.4,1.2.5.5.4.6.6.3.5.5.7.6.4.2.4-.9-.4-1.1-.6c-.3-.2-.3,0-.5.1-.3.1-1,0-1.3,0s-.3-.2,0-.4c.2-.1-.2-.5-.5-.6s-.8-.2-1-.3-.2-.1-.2-.2.1-.2.1-.3-.6-.2-.6-.2c-.1-.1.1-.1.1-.1Zm-5.9,1.8c.1,0,.4-.1.8-.1.4-.1.2.2.1.2s.4,0,.6.1.1.2,0,.2-.6-.1-.9-.1-.9-.2-1.3-.3-.3-.4-.1-.4c.1,0,.6.1.7.2c0,0,.1,0,.1.2Zm2.5.3c-.1.2-.4.1-.7.1s.1-.2.3-.2c0,0,.5,0,.4.1Zm2.4,0c0,.1-.7.3-.8.4-.1.2-.3.1-.3-.1s.2-.2.4-.3c0,0,.5-.1.7,0Zm-1.1-.3c.2-.1,0,.2-.1.3-.2.1-.5,0-.8,0-.2,0-.1-.1,0-.2c0,0,.6,0,.9-.1Zm-.9.4c.2.1.2.3.1.3s-.3-.1-.4-.2c0,0,.1-.1.3-.1Zm-.3-1.4c0-.2,0-.3-.1-.4-.1-.2-.2-.3.1-.4.2-.1.5-.1.7-.1s.7,0,.4.3c-.1.1-.2.1-.3.1c0,.1,0,.2.1.3s.3.1.3.2c.1,0,0,.2-.1.2-.1.1-.3,0-.3-.1s0-.2-.1-.2-.3,0-.3,0c-.1,0-.1.1-.1.2s0,.3,0,.4c-.1.1-.3,0-.3-.1-.1-.1,0-.2,0-.4Zm1.5-1.1c-.3,0-.7,0-1,0-.1,0-.2,0-.3,0c0-.2.2-.3.4-.3s.4,0,.6,0c.1,0,.2-.1.3-.1s.2.2.2.2c-.1.1-.1.2-.2.2Zm.7-.2c0,0-.1-.1,0-.1c0-.2.1-.2.2-.3c0,.1.1.1.1.1.1,0,.2,0,.2.1s0,.2,0,.2c-.1.1-.2,0-.2.1-.1.1,0,.3-.1.4-.1,0-.2,0-.2-.1s0-.1,0-.2s0-.1,0-.2Zm.2.9c.3-.1.6,0,.9.2l-.1.1c0,0-.1,0-.2,0c0,0-.1,0-.2,0s-.2,0-.3,0-.1,0-.1,0c-.1-.1,0-.2,0-.3Zm-1.7-4c0-.1.2-.1.2.1.1.2.1.5-.1.6-.1,0-.1,0-.1,0v-.1c0-.2-.1-.4,0-.6Zm.9.1c0-.1-.1-.1,0-.2-.1-.1.1,0,.2.1.1.2,0,.5-.2.7h-.1c0-.1,0-.2,0-.3c0,0,.1-.1.1-.2s0,0,0-.1Zm-.6.4c.1-.1.2-.1.3,0-.1.2-.1.3-.1.5-.1,0-.2,0-.2-.1s0-.1,0-.2s0-.1,0-.2Zm7.9,4.1c.1.1,0,.1,0,.1-.2.2-.5.4-.8.4-.1,0-.3-.1-.3-.2s.1-.1.2-.2c.1,0,.2,0,.2,0c.1,0,.1,0,.2,0s.1-.1.1-.1.1-.1.2-.1.2.1.2.1Zm.9.1v.1c0,.3.5.4.2.4-.1,0-.3,0-.4-.1-.1,0-.2-.2-.1-.4-.1,0-.1,0,0,0s.3,0,.3,0Zm-.8-.3c0,.1,0,.2-.1.2c0,0,0,0-.1-.1c0-.1-.4-.3-.4-.5.2.1.6.3.6.4Zm.5.3c0,0-.1,0,0,0Zm9.20905-25.34584c-.00584.01322-.00905.02793-.00905.04584c0,.1-.2.1-.3.2s-.2.7-.3.7-.8-.3-.8-.4c0-.2-.2-.5-.4-.4s-.4-.2-.4-.3-.2-.2-.2-.1c0,.2.2.5,0,.7-.1.2-.5.4-.6.3s-.3-.1-.2,0s.2.2.3.3.1.3.2.4c.1.2.2.5.1.6-.2.1-.5-.1-.7,0s-1.7,1-1.7,1.2c0,.1-.2.3-.4-.1s-.6.5-.8.4-.4-.3-.7,0c-.3.4-.5.9-.4,1s.4.7.2.8c-.2.2-.4.2-.4.4.1.2.1.3-.1.4-.3.1-.4.1-.4.5c0,.3-.7,1.1-.8,1.1s-.5-2.1-.3-2.5s1.1-1.5,1.4-1.8.8-.7.9-1c.2-.3.4-.6,0-.5-.3.1-.2.2-.6.7s-.4.6-.4.4.1-.7-.2-.7-1,.6-1.2.9c-.2.2.2.5-.2.5-.5,0-.6-.1-1.6-.1-1-.1-1.4-.1-2.3,1s-1.2,1.4-.6,1.5s1.1-.2,1.1.4-.3,2.6-1.2,3.4-1,1-1.2.8c-.2-.1-.9.6-1.1.9s.1.5.2.8c.2.3.5.8-.1,1s-.7.5-.7.2.4-1,.1-1-.6-.1-.5-.3c0-.3.1-.6-.2-.5-.3,0-.7.4-.8.3s.4-.9-.3-.4c-.6.5-.7,1-.3.9.5-.1,1.2-.1.7.3s-.6.3-.3.9c.3.5.9,1.2-.1,2.3s-1.4,1.3-2.1,1.4c-.7,0-1.2-.2-1.4.3s-.3.4.2,1s.9,1.2,0,1.8-.6.4-.9-.1-.6-.7-.8-.7-.4.2-.4.5c0,.4-.1.5.2.9.4.4.7.5.8.7s-.1.3.1.6c.2.2.3.6.1.5s-1-.5-1-.9-.2-1-.4-1.1c-.3-.1.1-.5-.2-1.4s-.1-1-.4-.8c-.3.3-.7.5-.6-.2.1-.3-.6-.8-.6-1c0,0,.2-.5-.5-.3s-1.5.8-1.9,1.2-.9.5-.9.9.1.8,0,1.1-.6.9-.7.7c-.2-.2-1-1.7-1.1-2.2-.1-.4-.2-1.3-.2-1.4s0,0-.2.1c-.1,0-.6.2-1-.8-.3-.7-.7-.5-1.2-.5-.6,0-1.6.1-1.7-.2s-.8-.2-.9-.3-.7-.4-.7-.5-.1-.7-.5-.5c-.3.2,0,.5.2.9s.4.9.8.9c.4-.1.7-.5.8-.5s.1,0,.2.2.2.4.5.4.6.1.1.7c-.4.6-1.2,1.3-1.9,1.6-.6.3-2.1,1.1-2.2.4s-.5-1.2-1-2.1-.9-2-1.2-2c-.3.1-.4,0-.5-.1c0-.1-.4-.5-.2-.1s.3.5.5.9c.3.3.7,1,.8,1.5s.4,1,.6,1.3.6.5.9,1s.7.6,1.3.4c.5-.2,1-.5.9-.1-.1.5-.5,1.6-1,2s-2.2,1.8-2.2,2.3c-.1,1.2.7,2.4.3,2.9s-1.5.8-1.4,1.5c0,.7.2,1-.3,1.2-.7.3.1.4-.5,1.1-.3.3-.9,1.6-1.8,1.7s-1.9.4-1.9-.2-.6-1.5-.8-1.9c-.3-.3-.2-1.3-.3-1.5s-.8-.8-.7-1.6.6-1.2.4-1.9-.4-1.2-1.1-2.1c-.2-.3,0-.3.1-.7c0,0,.3-1.1-.6-1-.6.1-.4-.3-.6-.4-.3-.2-.9-.2-1.7.2c0,0-1.1-.2-1.5.1-.5.3-1.6-.8-1.7-1s-.1-.5-.6-.8c-.4-.3-.5-.9-.5-1s.5-.5.3-1.2-.2-.8-.1-1s.8-1.1.9-1.3c.1-.1,1-.6,1-.8.1-.2,0-.9.7-1.2.3693-.18465.31241-.62501.38019-.69152-.05032.02841-.08019.05997-.08019.09152c0,0-.2,0-.3-.2s-.4-.2-.5-.2c0,0-.2,0-.2-.2s-.2-.4-.1-.5c0-.1.2-.6.2-.7-.1-.1-.1-.4-.1-.5-.1,0-.2-.1-.1-.2s.3-.2.6-.2c.3.1,1.2.1,1.3.1s.4-.3.3-.8-.4-.7-.5-.8c-.2,0-.5,0-.5-.1-.1,0-.2-.3,0-.3.04086-.02043.0859-.03251.13255-.03881.09023-.12254.18906-.36119.36745-.36119.1,0,.4,0,.3-.1-.1,0-.3,0-.4-.1c0,0-.2,0-.2-.1s0-.2.1-.2.2-.3.1-.3-.2-.2-.1-.2.3.1.3,0s.1-.3,0-.4c0,0-.2-.1-.1-.2l.1-.2c-.1,0-.3.1-.3.1s-.1-.1-.1-.2.1-.3,0-.3-.1.1-.2.2l-.1-.1c0-.1-.1,0-.1,0s0-.1.1-.2s0-.1-.1-.1-.1,0,0-.1.1-.2.1-.2-.12841-.0428-.18921-.10041c-.00346.00027-.00706.00041-.01079.00041c0,0,0,0-.1,0c0,0,0-.1,0-.2c0,0,.06679,0,.14578.05458.04532-.04422.08733-.08182.11602-.09278L186.1,67.2v-.1c0-.1.1-.1.1-.1s0,0,.1,0c0,.1,0,.2,0,.3-.1,0-.1,0-.1,0c0,.1,0,.1.1,0c.1,0,.2-.1.2-.1.1-.1,0-.3.1-.3s.7-.1.6,0-.3.3-.3.4s0,.1.2,0c.2,0,.5-.1.4.1c0,.1-.3.5-.3.6s0,.3.1.4.4.4.4.4l.2.1c0,0,0,.3.1.4.1,0,0,.1.1.2c0,.1,0,.1.1.1.03211,0,.08483.02062.13501.05523.02427-.01798.04637-.03661.06499-.05523.1-.1.3-.4.3-.5s.1-.2.1-.2s0,.2.1.2.1,0,.1-.1c0,0-.1-.1,0-.2s.3-.1.4-.1.4-.1.5-.2s0-.5,0-.6-.1-.1-.1-.2s0-.4,0-.5c.1-.1.1-.1.2-.2.1,0,.5-.4.5-.2c0,.1-.1.4-.1.4.1.1.2.2.2.2s-.1.1-.1.2-.2.2-.2.2c0,.1.1,0,.1,0s.1.1.1.2-.2.2-.2.1-.1-.2-.1-.2v.2c0,0,.1.3.2.3s.2-.1.2,0c0,0-.1.3,0,.2.10302-.05151.23257-.12955.34765-.19312-.01561-.00431-.03163-.00688-.04765-.00688-.1,0,0-.1,0-.2-.1,0,0-.2.1-.2c0,0,.1,0,.1-.2.1,0,.1.1.2.2c0,.1-.1.1-.1.1c0,.06667,0,.13333,0,.2.1,0,0,.1.1.2.1,0,.3.1.4,0c.1,0,.5-.3.6-.3s.3-.1.3,0s0,.3.2.2c.2,0,.2-.1.2-.2.1-.1.2-.1.2-.1.1,0,.1,0,.1,0c.1,0,0,0,0-.4s.1-.6.2-.7.3-.2.4,0s.2.2.3.2.1-.4.1-.5-.2-.1-.2-.3s0-.4.2-.4c.1,0,.5,0,.8,0c.3.1.4-.2.5-.2s.3,0,.2-.1c0,0-.3,0-.3-.1-.1-.1-.2-.2-.6-.1-.4.2-.7.5-.9.4s-.5-.2-.5-.5.1-.7,0-.9c-.1-.1-.2-.3,0-.5.3-.1.7-.7.8-.8.1-.2.5-.4.2-.6-.2-.2-.6-.4-.7-.2s-.3.5-.3.7-.1.5-.4.8c-.3.2-.7.8-.7,1.1c0,.2.2.4.3.5.2.1.4.6.1.7-.3.2-.5.4-.5.6s.1.8-.2.9c-.3.2-.3.4-.5.4s-.2-.3-.3-.6c0-.3-.2-.7-.3-.9s-.1-.6-.3-.4c-.3.2-.5.4-.6.5-.1,0-.8.1-.8-.5s.1-1.3,0-1.4.1-.2.5-.6c0,0,.6-.4.8-.7.2-.4,1-1.9,1.2-2.3s.3-.7.4-.9.5-1,1-1.1c.6-.1.9-.3,1.1-.4.3-.1.8-.2.9-.2.2,0,.7.3.8.3s.4.2.2.3-.4.2-.3.3.7.5,1,.5c.4,0,.6,0,1,.4.4.3,1,.5,1,.9s.1.4-.2.7c-.2.3-.4.4-1,.1s-.9-.5-1-.5c-.1-.1-.2-.1,0,.1.1.3.5.4.5.6s0,.7.1.9c.1.1.4.4.5.4.2,0,.3,0,.3-.1s-.2-.2-.3-.4s0-.4.2-.2.8.3.7.1-.3-.3-.1-.4c.1-.2.5-.7.8-.6.2.2.4.2.4,0s-.2-.5-.1-.8c0-.3.2-.7.3-.6s.7.4.4.6-.4.5-.2.6.1.1.5-.4c.5-.6,1.1-1.1,1.5-.9.4.3.5.1.8.1.3-.1.6-.1.9-.2s.2-.5,0-.6c-.1-.1,0-.3.4-.1s.9.3,1.2.6c.4.3.6.6.7.6s.4,0,.1-.5c-.3-.4-.6-.9-.5-1.2s.4-.9.6-1.4.2-.7.5-.6.8.2.6.9c-.1.7.1.8.1,1.1-.1.3-.2,1.5,0,1.5s.5.2.4-.4c-.1-.5-.2-1.7.2-1.9.4-.3,1-.7,1.1-.6.2.1.5.5.7.5.1,0,.3-.2.1-.4s-.6-.9-.5-1.1c0-.2,1.5-.1,1.6-.4s-.4-.5-.1-.9.7-.9,1.2-.9c.4,0,.6-.2.8-.3s.6-.2,1-.2c.3-.1.4-.3.6-.4s.3-.3.4-.6c.1-.4.3-.8.6-.9s.8.2.7.3-.5.4-.3.4c.1,0,.7.1.7.3s.9,0,1.1.2.9,1,.5,1.5c-.5.5-1.3,1.3-1.2,1.4.1.2.5.1.9.2.4,0,1.5,0,1.7.3s1.2.7,1.2.3-.1-.6.7-.3c.8.4.9.5.8.8-.2.3-.3.5-.1.8.1.3.6,1.2.7.5s0-.8.4-.5c.3.2,1.6.3,1.7,0s-.1-.9.6-.8c.8.1,1.7.1,1.9.4s.4.5.6.8c.3.3.7.3,1,.2s1.3,0,1.3.3-.2.9.4.8s1.1-.1,1.3,0c.1.1.4-.2.5-.2s1-.4,1.7-.1c.7.2,1.5.9,2,1.2s.8.5.8.6s0,.5.1.5.2-.2.2-.2l.5.1c0,0,.16786.20143.30905.25416ZM187.1,70.6c0,0-.00424-.01697-.01011-.04304-.05421.00389-.08989.01633-.08989.04304c0,.0335,0,.06701-.00752.09675.06116-.00693.10752-.02866.10752-.09675Zm-.80481,4.60041c.00155-.00027.00315-.00041.00481-.00041.1,0,.3.2.7.2s.9-.4,1.7-.5c.01094-.00137.02189-.00274.03283-.0041-.15385-.01977-.22089-.10783-.13283-.1959c0,0,.1-.1.2,0c.07849,0,.15697.1232.09042.17621.50781-.06338.99622-.12352,1.30958-.15449c0-.12052,0-.25965,0-.32172c0-.1.1-.2.2-.2c0,0,.16472-.08236.12044.50037.18637.00693.27956.1135.27956.49963c0,.4-.1.7.1.8.3.2,1,.2,1.1.4s.2.4.5.4c.2,0,.2.2.4.2.2.1.3,0,.3-.3c0,0-.1-.8.8-.4.9.3,1.5.6,1.7.5s.5-.2.9-.1c.3.1.4-.2.5-.4.01955-.03909.05055-.10492.0863-.1863C197.1,76.2,197.1,76.2,197.1,76.2c-.1.1-.1.2-.2.2c0,0,0,0-.1,0s-.2,0-.2-.1v-.1c0-.1,0-.1.1-.1s.2,0,.3,0c0-.1.1-.1.1-.1h.1v.08228c.14698-.33962.35599-.90428.2-.98228-.2-.1-.4-.1-.6,0-.1.1-.2.1-.4,0-.2-.2-.3-.2-.5-.1-.3.1-.8-.1-.9-.4-.1-.2-.3-.3-.3-.4c0-.2.2-.7-.2-.7-.2,0-.4,0-.4.1.1,0,0,.1-.1.1s-.3-.1-.2.1c.1.3.2.4.3.5c0,0,.3.1.1.2s-.2,0-.3,0c0,0-.1,0,0,.1s0,.1,0,.2c0,0,.1.2,0,.2s-.3-.1-.4-.2c0-.1-.2-.3-.1-.3s.2-.1.2-.1s0,0-.1-.1c0-.1-.1-.1-.1-.2-.1,0-.2.1-.3,0s-.1-.4-.1-.7c0-.6-.5-.5-.6-.7-.2-.2-.4-.1-.5-.3-.1,0-.1-.1-.2-.3c0,0,0-.1-.1-.1c0,0,0,.1-.1.1s-.2,0-.2-.1.1-.2-.1-.1c-.1.1-.2.2-.2.3s0,.3.1.4c.1.2.5.7.6.7h.2c0,0,0,.1.1.2s.6.3.6.4s0,.2-.1.2-.3-.2-.3-.2c-.1,0-.2.1-.1.2s.1.3,0,.4c0,.1-.2.2-.2.2c0-.1-.1-.1,0-.2s.1-.3.1-.4c-.1-.1-.5-.5-.7-.6s-.7-.4-.7-.5-.1-.4-.3-.5-.5,0-.6.1-.2.3-.4.3c-.2-.1-.6-.3-.7-.1s0,.4-.1.5c0,0-.2.2-.3.2s-.2,0-.4.2-.3.4-.2.5c0,.1.1.2-.2.5s-.3.4-.6.4c-.19628,0-.39255.0428-.50481.10041ZM238.6,62c0,.25236-.08845.29243-.19095.25416.02678-.06058.10886-.08999.19095-.25416ZM199,73.6c-.4-.2-.7-.6-.8-.6s-.2-.2-.1-.4.3-.4.3-.4.2-.1,0-.1c-.3,0-.5.1-.7.2-.2,0-.5.1-.5.2s0,.3.1.3.3,0,.3,0c.1,0,.1.1,0,.1s-.3,0-.4.1c-.2.1-.3.2-.3,0-.1-.2-.3-.3-.3-.3.1,0,.4-.1.3-.1-.1-.1-.4,0-.4-.1s.1-.3-.1-.2c-.2,0-.3.2-.4.3c0,.1,0,.1-.1.3-.1.1-.3.2-.3.3c0,.2-.1.2-.2.5-.1.2-.1.3,0,.4c0,.1.2.2.2.2.2,0,.5.1.7,0c.2-.2.3-.3.5-.3.3,0,.7.1,1,.2s1,.1,1.1,0s.3-.4.1-.6Zm3.5.3c-.1-.2-.2-.4-.4-.3s-.2-.2-.2-.3c0,0-.2-.2-.3-.2s-.2-.3-.2-.4s0-.1.1-.1c.1.1.1-.2.2-.2s.2,0,.3-.1c0-.1.1-.2.1-.3s-.1-.2-.1-.2c-.4-.1-.7,0-.9.2s-.6.5-.6.6c0,.2.1.3.1.5s0,.5.2.6c.2.2.4.5.3.9s-.2.5.1.7.8.4,1,.3.2-.4.1-.6-.2-.4-.3-.5c-.1,0-.2-.2.1-.2.3.1.4,0,.4-.4Zm14.9,6.9c.2.1,0,.2-.1.4s-.4.1-.5,0c0-.1.1-.4.3-.5c0,0,.1.1.3.1Zm-16.2,9.3c.1.3.1.4,0,.4s-.1.1-.1.4-.3,1.1-.5,1.8-.8.7-1,.5-.2-.6-.2-.9.1-.3.2-.6s0-.5.1-.9c.1-.3.5-.3.8-.5s.4-.5.5-.7h.1c.1.1.2.2.1.5Zm8.2-6.5c.1,0,.1.2.2.3s.2.3.2.6-.4.2-.5,0c-.2-.1-.1-.5,0-.8c0,0,.1,0,.1-.1Zm-18.9-9.8c0,0,0,.3-.1.3s-.2-.1-.2-.2c0-.2.1-.3.2-.3c0,0,.1.1.1.2Zm-4.4-5.1c.2.2,0,.4,0,.7.1.3-.1.6-.2.6s-.4.3-.7.3c-.3.1,0-.4,0-.6s-.1-.5-.2-.6c0-.1.2-.1.5-.1.2-.1.2-.1.2-.2s0-.2.1-.2c.2-.1.4-.1.3.1Zm27.4-21.3c.2,0,.5.4.5.9s-.3.5-.7.7-.7-.1-.8-.5c0-.4-.1-.4.4-1.1c0,0,.6-.1.6,0Zm2.1,2.8c.3,0,.5,1,.3,1.3s-1.2.5-1.5.5c-.2-.1.3-1.3.7-1.8c0,0,.2-.1.5,0Zm-1.4-1.3c.5,0,.5.5.4.9-.1.5,0,.9-.2,1s-1-.1-1.3-.3c-.3-.1-.1-1,0-1.3c0,0,.6-.3,1.1-.3Zm10.9,5.3c.3.1.8.1,1.3.4s.2.8-.2.8-.9.3-1.4.2c-.4-.1-.4-.7-.3-1.1c0-.3.3-.4.6-.3Zm2.2.6c.1.2.6.1.9.3.2.2-.1.4-.5.4s-1-.4-.8-.8c0,0,.3-.1.4.1Zm-33-2.1c-.1,0-.1.1-.2.1-.4.1-.9-.2-.9-.6c0-.2.1-.4-.1-.5-.1-.1-.2-.1-.3,0-.2.2-.2.4-.2.6l-.1,1.3c0,.2-.2.3-.3.2s-.1-.1-.2-.2c-.2-.2-.4-.4-.5-.6l-.6-1c-.1-.1-.2-.3-.2-.5-.1-.3,0-.6-.1-.9-.1-.2-.3-.4-.3-.6s.1-.4.2-.5c.1-.2.4-.4.6-.3.1.1.2.2.3.3.3.2.4-.7.8-.4.6.2,1.1.7,1.3,1.3.1.2.1.4.2.5s.2.2.3.3c.4.3.6.8.5,1.3c0,.1,0,.2-.2.2Zm-.8-2.9c-.2-.2-.3-.2-.5-.4-.1,0-.2-.4-.2-.5c0-.3.2-.5.4-.6.6.1,1.2.1,1.8.5.1.1.1.4.2.5.1.3,0,.7-.2.9-.3,0-.7.1-1-.1-.1-.1-.5-.1-.5-.3Zm1.4,26.4c0,.1,0,.1,0,0-.1.1-.1.1-.2,0-.2,0-.4,0-.5-.1.1,0,.2,0,.3,0s.1,0,.2,0s.1.1.2.1c.1.1,0,.1,0,0Zm-3.4-1c.1,0,.2.1.3.1s.2-.1.3-.1s0,.1,0,.1-.1.1-.1.2s0,.1,0,.2-.2,0-.2,0c-.1-.1-.3-.2-.4-.2-.1-.1-.2-.1-.2-.2c0,0,0,0,.3-.1Zm11.7-16.1c0,.1,0,.1-.1.1-.3.1-.8.1-.9-.1s-.1-.5-.3-.6c-.2,0-.5-.3-.2-.6s1.3-2.7,1.3-2.8c0-.2,1-1.1,1.4-1.2s1.1-.4,1.1-.5c.1-.1.8-.8.8-.2c0,.5-.2.8-1,1.2s-1.7,1-2.1,2.3c-.4,1.2-.5,1.4-.4,1.7s.3.6.4.7Zm22.3-2.8h.1c.2.1.3.2.4.3.1.2.2.3.1.5-.3.1-.6,0-.9-.2-.1,0-.1-.1-.1-.1l.1-.1c.2-.1.3-.2.3-.4Zm-41.2,6.8c0,.2,0,.5-.4.6-.3.2-.8.7-1,.6s-.4-.2-.5-.2c-.2,0-.6,0-.6-.1s.2-.2.2-.3s0-.3-.2-.3-.6-.1-.3-.2.5-.1.5-.2c-.1-.1-.3,0-.4,0s-.3.1-.1-.2.3-.5.3-.5c.1,0,.3,0,.3.2s.2.6.3.3c0-.2.1-.4.2-.3s0,.2.1,0s.2-.2.4-.1c.1.1.3.2.3.1c0-.2.1-.4.2-.3s.3.1.4.3c.1.1.3.6.3.6Zm-14.5,18c0,0,.1,0,0,.1c0,0,0,0-.1,0-.5.1-1,.2-1.6.1c0-.1.1-.1.1-.2.1,0,.2,0,.2,0c.1,0,.1-.1.1-.2-.1,0-.1,0-.2,0s-.1-.1-.1-.1c.2,0,.2-.1.3,0c.4,0,.9.1,1.3.3Zm.5.1c.1,0,.1.1,0,.2-.2.1-.3,0-.4,0s-.1-.1-.1-.1c.1-.1.1-.1.1-.1.1,0,.3,0,.4,0Zm-2.9-.3c-.1,0-.1,0-.2-.1s-.1-.1-.1-.2c-.1-.1-.3-.1-.5-.1s-.3-.1-.5-.2c-.1-.1-.3-.1-.5-.1-.1,0-.3.1-.3,0s0-.2.1-.2.2,0,.2,0c.1,0,.2-.2.4-.2.1,0,.2.2.4.2.1,0,.2,0,.3,0c.2,0,.5.1.6.3.2.1.4.3.6.4c0,0,0,0,.1,0v.1h-.1c-.1.1-.3.1-.5.1Zm0,.3c.1,0,.2.1.2.2-.2.1-.4,0-.5-.1.1-.1.2-.1.3-.1Zm2.4-27.1c-.4-.2-.5-.8-.4-1.1s.1-.6-.7-1.1.2-1,1.3-1.6c1.1-.7.4-1.1.3-1.8s.6-1.5,1.3-2.2c.6-.7,1.9-1.1,3.2-1.7s2.3-1.9,4.2-2.3s1.6,1.2,2.6,2c1,.9-1.4,1-1.8,1.5-.5.5,1.7-.2,2.1-.3s.4,1,.6,1.3c.3.3.7-.5,1.5-.8s1.1.8.6,1.5-2.5,2.4-2.2,4.1c.3,2.4-.2,5.8-.3,7.4s-1.5,1.9-2.5,2.2-1.5,1.5-2.1,2c-.6.6-.9,2.7-1.5,3s-2.2-2.8-2.5-3.7c-.3-1,.4-2.4.4-3.4s-.6-1.5-1.4-3.6-1.1-1.3-2.1-1.2c0,0-.1.1-.6-.2Zm-5.1,2.4c.2,0,.4.4.5.1.1-.2.6-.3,1.4.2s.6.4,1,.8s1.4,1.3,1.9,1.7c.6.4.3,1,1.5,2.3s-.1,1.3-.5.8c-.5-.5-.5.4-.1,1.1s.3,1.4-.2,1.6-1.2-1.6-2.7-1.3c-1.2.3.3-.9,1-1.7.8-.7-.8-1.9-1.2-2.2-.3-.4-.8-.1-1.7-.2-.9,0-1.2-.5-1.5-.9s.1-1.8.4-2.3h.2Zm3.7-6.3c.2.4-.5,1.6-1,1.9s-.2,1.1-.3,1.5-1.2.4-1.9.2-1,.3-.9.8s1,.1,2,0c1,0,.6,1,.5,1.4s-2.8-.1-3.3-.3c-.5-.3.1-1-.4-1.5s-.7-.6-.7-1s.7.3,1.2.4.8-.7,1.1-1.1-.3-.8-1.1-1c-.7-.3-.7-.9-1-1.5-.4-.6-.2-1.5-.1-2.3.1-.7.8-.5,1,.1s1.5,1.1,2.6.9.3-.7-.6-.5-1.1-.4-1.4-.8c-.3-.5-.3-1-.3-1.4c0-.3,2.7-1.7,3.5-2.1.6-.3,2.2-.1,3.3.2s1,1.1.7,1.7-1.3,1.7-1.6,2.1c0,0-1.7,1.7-1.3,2.3Zm-11.6,6.1c1.1.4-.2.9-.6,1.1-.3.2-.3.9-.7,1.4s-.6-.3-.9-.7c-.2-.3,0-1.2.1-1.7c0-.2.2-.4.4-.4.4,0,1.1,0,1.7.3Zm.2.7c.4-.2,1,.3,1.4.6s.5-.4,1.1-.9.4,1.3.5,1.9.4.7.8,1.5-.6.4-.9.4-1,.3-1.7.6c-.6.3-.8-.5-1.2-.9s0-.4.7-.6.1-.4-.3-.4-.8,0-.9-.2c0-.2.1-.5-.1-.6-.2,0-.1-.5.1-.9c0,0,.3-.3.5-.5Zm-.1-3.6c-.3.3-1.1.9-1.5.7s.4-1.1,1-1.5c0,0,1.8-.6.5.8Zm.5.5c.1.2.6.5.9.1s.6-.7,1-.3.6.7.5,1.2-.6.4-1.1.6c-.5.1-1,.4-1.1.2c0-.2-.1-.4-.8-.5-.7,0-.1-.7.2-1.4c0,0,.4-.1.4.1Zm.7-3.1c.2,0,.4-.1.6,0s.3.3.2.5c-.1.1-.3.1-.5.1s-.5,0-.6-.2c-.1-.1,0-.2,0-.2l.3-.2Zm9.4,10.9c0-.1-.1-.3,0-.5s.3-.3.5-.2c.1.1.1.3.1.4-.1.2-.1.4-.3.5-.1.1-.2,0-.2,0l-.1-.2Zm-2.4,1.1c.2,0,.3,0,.4.1.4.7.6.4.9.8.4.5.1.6-.1.6s-.5-.1-.6.2c-.1.2-.7,0-.9-.4s.1-.7.2-1.1c0-.1,0-.2.1-.2Zm-3.2-6.6c.4,0,0,.9.3,1.2.05661.05661.08829.1239.10043.19785.09928-.49957.00014-1.09785.39957-1.09785.4,0,.5.1.7.1s.4-.2.2.5-.1.7-.5.7c-.3,0-.5-.1-.4.1s.1.3,0,.5-.3.1,0,.4.7.8.6,1.1-.2.6.1.7c.2.1.3,0,.3.3s0,.7.1.5.1-.8.3-.5c.2.2.2.3.2.6s.2.9.4.5.3-.9.4-.9-.2-.4-.1-.5.5-.5.8-.1.1.6.1.8.4.5.2.8-.4.5-.6.6-.3.1-.5,0-.2-.1-.1.1c0,.2-.1.5-.2.5s-.2.1-.4-.1c-.3-.1-.4-.1-.2,0s.4.2.5.2.2,0,.1.2-.2.6-.5.6-.2.1-.4.2c-.1.1-.3,0-.2.1s.2.2.1.3c0,0-.3.1-.4.3-.1.1-.5.7-.5,1-.1.3-.2.5.1.9s1.1,1.1,1.6,1.3s1.4.2,1.5.7c.1.4.4,1.6.7,1.6s.5-.8.2-1.1c-.2-.4-.2-.4.2-.6s.6-.9.2-1.3c-.4-.5-.1-.5,0-.9.1-.5-.1-.5-.1-.9c0-.3,0-.8.4-.7.4.2.6-.1.9.1s.5.7.8.8.2.2.2.5c0,.4.1.8.5.7s.6-.7.7-.8c0-.5.1-.4.1-.4.2.5.5,1.1.7,1.5s.5,1,.7,1.1.2.3.4.4.7.5.4.7-.8.9-1.2.9-1.2-.2-1.5.1c-.3.2-1,.7-1,.7.1.1.2,0,.4-.1s.9-.4.9-.3s0,.3,0,.6c0,.2-.1.3.1.4s.3.2.4.2.4-.3.5-.3c.1.1.5.3.1.5s-.8.5-.9.5c-.1.1-.5.5-.6.3c0-.2,0-.4.2-.5s.3-.4.1-.2c-.3.2-1.3.5-1.4.6c0,.2-.2.3-.1.4.1.2.2.3-.2.5-.4.1-.6.1-.7.4c0,0-.2.5-.3.7s-.2.2-.2.2c-.1-.1-.2-.2-.1.1s.3.6-.1.9c-.5.3-1.1.7-1.1.9c0,.1-.2.3,0,.8.1.5.4,1.4.1,1.4-.2,0-.5-.6-.5-.8-.1-.2-.1-.7-.4-.7s-1.1-.1-1.3-.1c-.2.1-.2.2-.6.2-.5-.1-1,0-1.4.4s-.1.6-.2.7-.2.8-.1,1.1c.1.2.2.8.5.9.2.1.8.2,1,.1s.5-.3.5-.5-.1-.4.2-.4.8-.2.7.1c-.1.2-.4.7-.4,1s-.1.5.1.5.7-.1.9,0s.4.2.3.7-.1.8.1,1c.3.2.5.2.9.1s.7.3.7.3l-.2.4c-.1-.2,0-.5-.3-.5-.2,0-.4.1-.4.1s.1.5-.3.2c-.3-.3-.7-.4-.8-.5-.2-.1-.4-.1-.4-.2s-.1-.4-.2-.4c-.1-.1-.1-.3-.2-.4s-.8-.1-1.1-.3-.6-.7-.9-.6-2.1-.1-2.6-.7-.1-.6-.3-.9-1.8-2.3-2-2.7-.6-.3-.3.2s1.1,1.8,1.2,1.9.2.5-.2.1-.5-.9-.7-.9-.6-.3-.6-.4.3-.1.2-.2c0-.1-.6-1.1-.8-1.3-.3-.2-.7-.5-.8-.6-.1-.2-.7-.9-.9-1.7s.1-2.3,0-2.5-.1-.7-.4-.9-.9-.6-.9-.7c.1-.1.4,0,.2-.3s-.5-.8-.7-1.2-1.2-1.5-1.5-1.9c-.3-.3-1.4-1.1-1.8-1.1-.4-.1-.9-.4-1.1-.3s-.3.3-.3.4-.6.3-.7.4c-.2.1-.2-.1-.2-.2c0-.2-.3-.2-.4.1-.2.3.3,0,0,.4s-.8,1.1-1.6,1.5-1.2.8-1.4.8-.3-.1.1-.4c.4-.2,1-.5,1.3-.7s.5-.6.5-.8s0-.2-.3-.2-.5-.1-.6,0c-.2.1-.2-.2-.2-.5-.1-.2-.5-.1-.6-.1-.04894,0-.21762-.16765-.35369-.39745-.04086.00836-.02296.04415.05369.19745c0-.1,0-.1,0,0-.1.1-.3.1-.4,0c0,0-.1,0-.1-.1v-.1c0,0,0,0,.1,0s.1,0,.2,0c0,0,0,0,.1,0h.0448c-.14122-.23941-.24657-.54559-.1448-.8.2-.5.4-.9.7-.9s.6-.1.6-.5c-.1-.4-.8-.2-1-.2c0,0-.4,0-.4-.2c0-.3-.2-.3-.3-.4s-.2-.2.1-.3c.3-.2.7-.5.8-.5s.3,0,.3.1-.1.3,0,.3.6-.1.5-.2-.4-.4-.5-.5c-.1,0-.2-.2-.3-.4-.1-.1-.5-.3-.5-.4s0-.4,0-.4c0-.1,0,0,.2,0s.4-.1.5-.4.2-.6.5-.7c.2-.1.8-.4,1.1-.6s.5,0,.8.1.7.4,1,.4c.4-.1.8.2,1.1.2.4,0,.4.1.8,0s.4.3.8.4.9.6,1.3.4.7-.5,1.1-.6.4-.2.5-.1.3.1.3-.1c0-.1.1-.4.2-.1s.2.9.4.6.3-.7.4-.3.2.4.3.2.4,0,.6.1.4.3.7.4.6.1.8.2.5.3.2.4c-.2.1-.5.4-.1.4s1.1-.3,1.2-.1.4.5.5.2-.2-.4-.1-.5.5-.5.7-.3c.1.2.2.5.7.6s.8.2,1,.1.1-.5.3-.4c.2,0,.5-.1.6.2c0,.2.2.8.2.6c0-.4,0-.5.4-.6.1-.1.3-.5.1-.7-.10384-.10384-.28854-.12681-.44215-.20886.01525.03455.0295.07091.04215.10886.2.2.1.3-.1.4s-.5-.2-.7-.3c-.2-.2,0-.2.1-.3s0-.3.1-.5c0,0,.1-.1.3.2c0,0,.00205.00205.00584.00605-.00382-.0327-.00584-.06796-.00584-.10605c0-.6.1-.8.2-1.3.08155-.40777-.03642-.48299-.02848-.82232-.08203.26299-.29424.54504-.47152.72232-.3.3-.5-.1-.8-.6s-.4-.5-.1-.7.2-.3.1-.5c0,0,0-.2.1-.2.2-.1.4-.4.8-.4Zm-1.4-6.1c.4.1.7.6.9.9s.2.9.1,1.2c0,.3-.4-.3-1.1-.6s-.2-.5-.2-.8-.4-.4-.5-.7c0,0-.1-.4.8,0Zm-1.8,1.7c.3.1-.4.8-.7.8s-.4-.6-.2-.7c0,0,.4-.2.9-.1Zm1.8,1.8c.1.1.6-.1.9-.2s.5.3.5,1.1-.6.7-.8.5-.2-.3-.5-.3-.2-.8-.4-1.1c0,0,.3.1.3,0Zm1.8-2.5c.5.3.3.9-.1.9s-.4-.9-.5-1.1c0,0,.1-.2.6.2Zm.7,4.1c.1.8-.4.4-.6.3-.3-.1-.2-.5.1-.8c0,0,.3-.3.5.5Zm7.8,15.6c.1,0,.2,0,.1-.1h.1c.1.1.1.1.1.1.1.1.3.1.3.2v.1c0,.1-.1.1-.2.1-.1-.1-.3-.2-.4-.3c0,0,0,0,0-.1Zm2.4-.6c.1.1-.2.5-.2.7s.4.1.6.1.1.4.2.5.2.5.1.6-.4-.1-.6-.1-.2,0-.2-.2c0-.1-.3,0-.6.1s-.3-.1-.4-.2c0-.1.5-1.1.7-1.4c0,0,.3-.2.4-.1Zm-25.8-3c0,.2-.2.5-.4.6h-.1c-.1,0-.2-.1-.2-.1v-.1c.1-.1.2-.2.3-.3h.1c.1,0,.1-.1.1-.1c0-.1.1-.1.2-.1c0-.1,0,0,0,.1Zm-4.1,2.2h-.1l-.1-.1c0,0,0,0,.1-.1.1,0,.1-.1.1-.2v-.1h.1c.1.1.2.1.3.2c0-.1,0,0,0,0-.1.2-.2.3-.4.3Zm17.9-8.9c0-.1,0-.1,0,0c0-.1,0-.1,0,0c.1-.1.1-.1.2,0c0,.1,0,.1,0,.1l-.1.1v.1h-.1c-.1,0,0-.2,0-.3Zm32.1,14.7c.1,0,.2,0,.1,0c0,0,0,.1-.1,0c.1.1.1.1,0,0Z" fill="#c9d6eb"/><path d="M61.4,64.7h55.6c2,0,3.6,1.6,3.6,3.5v0c0,1.9-1.7,3.5-3.6,3.5h-55.6c-2,0-3.6-1.6-3.6-3.5v0c0-2,1.6-3.5,3.6-3.5Z" fill="#c9d6eb"/></g>
</svg>
