<svg id="eXzL6VlBfFQ1" xmlns="http://www.w3.org/2000/svg" xmlns:xlink="http://www.w3.org/1999/xlink" viewBox="0 0 355 190" shape-rendering="geometricPrecision" text-rendering="geometricPrecision" project-id="fdd5ea22d1104dc893b881eb43d4ba39" export-id="c1b4264a7b76465bad1ea8c330460297" cached="false"><defs><filter id="eXzL6VlBfFQ4-filter" x="-150%" width="400%" y="-150%" height="400%"><feGaussianBlur id="eXzL6VlBfFQ4-filter-drop-shadow-0-blur" in="SourceAlpha" stdDeviation="0,0"/><feOffset id="eXzL6VlBfFQ4-filter-drop-shadow-0-offset" dx="0" dy="0" result="tmp"/><feFlood id="eXzL6VlBfFQ4-filter-drop-shadow-0-flood" flood-color="rgba(0,0,0,0.03)"/><feComposite id="eXzL6VlBfFQ4-filter-drop-shadow-0-composite" operator="in" in2="tmp"/><feMerge id="eXzL6VlBfFQ4-filter-drop-shadow-0-merge" result="result"><feMergeNode id="eXzL6VlBfFQ4-filter-drop-shadow-0-merge-node-1"/><feMergeNode id="eXzL6VlBfFQ4-filter-drop-shadow-0-merge-node-2" in="SourceGraphic"/></feMerge></filter><linearGradient id="eXzL6VlBfFQ4-fill" x1="177.4327" y1="8.9964" x2="177.4327" y2="187.0974" spreadMethod="pad" gradientUnits="userSpaceOnUse" gradientTransform="translate(0 0)"><stop id="eXzL6VlBfFQ4-fill-0" offset="86.67%" stop-color="#fff"/><stop id="eXzL6VlBfFQ4-fill-1" offset="89%" stop-color="rgba(255,255,255,0)"/></linearGradient><linearGradient id="eXzL6VlBfFQ5-stroke" x1="177.4327" y1="8.9954" x2="177.4327" y2="194.9954" spreadMethod="pad" gradientUnits="userSpaceOnUse" gradientTransform="translate(0 0)"><stop id="eXzL6VlBfFQ5-stroke-0" offset="0%" stop-color="#e5e5e6"/><stop id="eXzL6VlBfFQ5-stroke-1" offset="100%" stop-color="rgba(229,229,230,0)"/></linearGradient><linearGradient id="eXzL6VlBfFQ7-fill" x1="0.0153" y1="90.4821" x2="50.0153" y2="90.4821" spreadMethod="pad" gradientUnits="userSpaceOnUse" gradientTransform="translate(0 0)"><stop id="eXzL6VlBfFQ7-fill-0" offset="0%" stop-color="rgba(221,229,241,0)"/><stop id="eXzL6VlBfFQ7-fill-1" offset="100%" stop-color="#bdcbe0"/></linearGradient><linearGradient id="eXzL6VlBfFQ8-fill" x1="228.623" y1="99.5692" x2="178.623" y2="99.5692" spreadMethod="pad" gradientUnits="userSpaceOnUse" gradientTransform="translate(0 0)"><stop id="eXzL6VlBfFQ8-fill-0" offset="0%" stop-color="rgba(221,229,241,0)"/><stop id="eXzL6VlBfFQ8-fill-1" offset="100%" stop-color="#bdcbe0"/></linearGradient><linearGradient id="eXzL6VlBfFQ115-fill" x1="50.8" y1="3.82" x2="50.8" y2="20.1698" spreadMethod="pad" gradientUnits="userSpaceOnUse" gradientTransform="translate(0 0)"><stop id="eXzL6VlBfFQ115-fill-0" offset="0%" stop-color="rgba(255,255,255,0)"/><stop id="eXzL6VlBfFQ115-fill-1" offset="100%" stop-color="#fff"/></linearGradient></defs><g id="eXzL6VlBfFQ2" transform="matrix(.97 0 0 0.97 5.31 2.535)"><g><path id="eXzL6VlBfFQ4" d="M13.7,15.7C13.7,12,17.1,9,21.4,9h312.2c4.3,0,7.7,3,7.7,6.7v171.4h-327.6v-171.4Z" filter="url(#eXzL6VlBfFQ4-filter)" fill="url(#eXzL6VlBfFQ4-fill)"/><path d="M341.2,195.5h.5v-.5-179c0-4.1-3.7-7.5-8.2-7.5h-312.2c-4.5,0-8.2,3.4-8.2,7.5v179v.5h.5h327.6Z" fill="none" stroke="url(#eXzL6VlBfFQ5-stroke)"/></g><g><rect width="50" height="181" rx="0" ry="0" transform="translate(128.6 9.1)" opacity="0.5" fill="url(#eXzL6VlBfFQ7-fill)"/><polygon points="178.6,9.1 228.6,9.1 228.6,190.1 178.6,190.1" opacity="0.2" fill="url(#eXzL6VlBfFQ8-fill)"/></g><g><circle r="8.8" transform="translate(102.5 117.4)" opacity="0.8" fill="#c9d6eb"/><circle r="8.8" transform="translate(102.5 152.7)" opacity="0.8" fill="#c9d6eb"/><circle r="8.8" transform="translate(129 117.4)" opacity="0.5" fill="#c9d6eb"/><circle r="8.8" transform="translate(129 152.7)" opacity="0.5" fill="#c9d6eb"/><circle r="8.8" transform="translate(155.5 117.4)" opacity="0.5" fill="#c9d6eb"/><circle r="8.8" transform="translate(155.5 152.7)" opacity="0.5" fill="#c9d6eb"/><path d="M95.2,130.6h14.7c.8,0,1.5.7,1.5,1.5v0c0,.8-.7,1.5-1.5,1.5h-14.7c-.8,0-1.5-.7-1.5-1.5v0c0-.8.7-1.5,1.5-1.5Z" fill="#c9d6eb"/><path d="M95.2,165.9h14.7c.8,0,1.5.7,1.5,1.5v0c0,.8-.7,1.5-1.5,1.5h-14.7c-.8,0-1.5-.7-1.5-1.5v0c0-.8.7-1.5,1.5-1.5Z" fill="#c9d6eb"/><path d="M8.8,0C8.8,4.860106,4.860106,8.8,0,8.8s-8.8-3.939894-8.8-8.8s3.939894-8.8,8.8-8.8s8.8,3.939894,8.8,8.8Z" transform="translate(76.5 117.7)" fill="#c9d6eb"/><circle r="8.8" transform="translate(76.5 153)" fill="#c9d6eb"/><path d="M69.2,130.9h14.7c.8,0,1.5.7,1.5,1.5v0c0,.8-.7,1.5-1.5,1.5h-14.7c-.8,0-1.5-.7-1.5-1.5v0c0-.8.7-1.5,1.5-1.5Z" fill="#c9d6eb"/><path d="M69.2,166.2h14.7c.8,0,1.5.7,1.5,1.5v0c0,.8-.7,1.5-1.5,1.5h-14.7c-.8,0-1.5-.7-1.5-1.5v0c0-.8.7-1.5,1.5-1.5Z" fill="#c9d6eb"/><path d="M121.7,130.6h14.7c.8,0,1.5.7,1.5,1.5v0c0,.8-.7,1.5-1.5,1.5h-14.7c-.8,0-1.5-.7-1.5-1.5v0c0-.8.7-1.5,1.5-1.5Z" fill="#c9d6eb"/><path d="M121.7,165.9h14.7c.8,0,1.5.7,1.5,1.5v0c0,.8-.7,1.5-1.5,1.5h-14.7c-.8,0-1.5-.7-1.5-1.5v0c0-.8.7-1.5,1.5-1.5Z" fill="#c9d6eb"/><path d="M148.1,130.6h14.7c.8,0,1.5.7,1.5,1.5v0c0,.8-.7,1.5-1.5,1.5h-14.7c-.8,0-1.5-.7-1.5-1.5v0c.1-.8.7-1.5,1.5-1.5Z" fill="#c9d6eb"/><path d="M148.1,165.9h14.7c.8,0,1.5.7,1.5,1.5v0c0,.8-.7,1.5-1.5,1.5h-14.7c-.8,0-1.5-.7-1.5-1.5v0c.1-.8.7-1.5,1.5-1.5Z" fill="#c9d6eb"/></g><path d="M112,48.2h51.3c2.1,0,3.8,1.7,3.8,3.8v0c0,2.1-1.7,3.8-3.8,3.8h-51.3c-2.1,0-3.8-1.7-3.8-3.8v0c0-2.1,1.7-3.8,3.8-3.8Z" fill="#c9d6eb"/><path d="M111.4,60.2h45.9c1.8,0,3.3,1.5,3.3,3.3v0c0,1.8-1.5,3.3-3.3,3.3h-45.9c-1.8,0-3.3-1.5-3.3-3.3v0c.1-1.8,1.6-3.3,3.3-3.3Z" fill="#c9d6eb"/><path d="M110.9,71.1h40.4c1.5,0,2.7,1.2,2.7,2.7v0c0,1.5-1.2,2.7-2.7,2.7h-40.4c-1.5,0-2.7-1.2-2.7-2.7v0c0-1.4,1.2-2.7,2.7-2.7Z" fill="#c9d6eb"/><path d="M110.4,80.9h35c1.2,0,2.2,1,2.2,2.2v0c0,1.2-1,2.2-2.2,2.2h-35c-1.2,0-2.2-1-2.2-2.2v0c0-1.1.9-2.2,2.2-2.2Z" fill="#c9d6eb"/><path d="M109.8,89.7h29.5c.9,0,1.6.7,1.6,1.6v0c0,.9-.7,1.6-1.6,1.6h-29.5c-.9,0-1.6-.7-1.6-1.6v0c0-.9.7-1.6,1.6-1.6Z" fill="#c9d6eb"/><path d="M191.5,36.1h19.1c1.2,0,2.2,1,2.2,2.2v0c0,1.2-1,2.2-2.2,2.2h-19.1c-1.2,0-2.2-1-2.2-2.2v0c0-1.2,1-2.2,2.2-2.2Z" fill="#c9d6eb"/><path d="M191.5,44.9h29.4c1.2,0,2.2,1,2.2,2.2v0c0,1.2-1,2.2-2.2,2.2h-29.4c-1.2,0-2.2-1-2.2-2.2v0c0-1.2,1-2.2,2.2-2.2Z" fill="#c9d6eb"/><path d="M191.5,53.7h26.5c1.2,0,2.2,1,2.2,2.2v0c0,1.2-1,2.2-2.2,2.2h-26.5c-1.2,0-2.2-1-2.2-2.2v0c0-1.2,1-2.2,2.2-2.2Z" fill="#c9d6eb"/><path d="M219.5,36.1h10.3c1.2,0,2.2,1,2.2,2.2v0c0,1.2-1,2.2-2.2,2.2h-10.3c-1.2,0-2.2-1-2.2-2.2v0c0-1.2,1-2.2,2.2-2.2Z" fill="#c9d6eb"/><path d="M229.8,44.9h10.3c1.2,0,2.2,1,2.2,2.2v0c0,1.2-1,2.2-2.2,2.2h-10.3c-1.2,0-2.2-1-2.2-2.2v0c0-1.2,1-2.2,2.2-2.2Z" fill="#c9d6eb"/><path d="M277.7,53.7v0c1.2,0,2.2,1,2.2,2.2v0c0,1.2-1,2.2-2.2,2.2v0c-1.2,0-2.2-1-2.2-2.2v0c0-1.2,1-2.2,2.2-2.2Z" fill="#c9d6eb"/><path d="M238.6,36.1h5.9c1.2,0,2.2,1,2.2,2.2v0c0,1.2-1,2.2-2.2,2.2h-5.9c-1.2,0-2.2-1-2.2-2.2v0c0-1.2,1-2.2,2.2-2.2Z" fill="#c9d6eb"/><path d="M257.1,44.9h-8.2c-1.2,0-2.2,1-2.2,2.2v0c0,1.2,1,2.2,2.2,2.2h8.2c1.2,0,2.2-1,2.2-2.2v0c.1-1.2-.9-2.2-2.2-2.2Z" fill="#c9d6eb"/><path d="M226.8,53.7h2.9c1.2,0,2.2,1,2.2,2.2v0c0,1.2-1,2.2-2.2,2.2h-2.9c-1.2,0-2.2-1-2.2-2.2v0c0-1.2,1-2.2,2.2-2.2Z" fill="#c9d6eb"/><path d="M253.3,36.1h24.4c1.2,0,2.2,1,2.2,2.2v0c0,1.2-1,2.2-2.2,2.2h-24.4c-1.2,0-2.2-1-2.2-2.2v0c0-1.2,1-2.2,2.2-2.2Z" fill="#c9d6eb"/><path d="M266,44.9h11.8c1.2,0,2.2,1,2.2,2.2v0c0,1.2-1,2.2-2.2,2.2h-11.8c-1.2,0-2.2-1-2.2-2.2v0c0-1.2,1-2.2,2.2-2.2Z" fill="#c9d6eb"/><path d="M238.6,53.7h30.3c1.2,0,2.2,1,2.2,2.2v0c0,1.2-1,2.2-2.2,2.2h-30.3c-1.2,0-2.2-1-2.2-2.2v0c0-1.2,1-2.2,2.2-2.2Z" fill="#c9d6eb"/><path d="M160.5,39.3c-.9,0-1.6-.1-2.2-.4s-1.1-.7-1.4-1.2v1c0,.1-.1.3-.1.4-.1.1-.2.1-.4.1h-1c-.1,0-.3-.1-.4-.1s-.1-.2-.1-.4v-15.1c0-.1.1-.3.1-.4.1-.1.2-.1.4-.1h1.1c.1,0,.3.1.4.1.1.1.1.2.1.4v5.2c.4-.4.9-.9,1.4-1.2.6-.3,1.3-.4,2.2-.4.8,0,1.6.1,2.2.4s1.1.7,1.5,1.2.7,1.1.9,1.7c.2.7.3,1.3.3,2c0,.2,0,.4,0,.7c0,.2,0,.4,0,.7c0,.7-.1,1.4-.3,2.1s-.5,1.3-.9,1.7c-.4.5-.9.9-1.5,1.2-.8.3-1.5.4-2.3.4Zm-.5-1.8c.8,0,1.4-.1,1.9-.5s.7-.8,1-1.3c.2-.6.3-1.2.4-1.8c0-.4,0-.9,0-1.3c0-.7-.1-1.2-.4-1.8-.2-.6-.5-1-1-1.3-.4-.4-1-.5-1.9-.5-.7,0-1.3.1-1.8.5-.4.3-.8.7-1,1.3-.2.5-.4,1-.4,1.6c0,.2,0,.5,0,.9c0,.3,0,.6,0,.9c0,.6.1,1.1.4,1.6.2.5.6,1,1,1.3s1,.4,1.8.4Z" fill="#c9d6eb"/><path d="M140.3,39.1c-.1,0-.3-.1-.4-.1-.1-.1-.1-.2-.1-.4v-14.8c0-.1.1-.3.1-.4.1-.1.2-.1.4-.1h6.2c1.1,0,2.1.2,2.7.6.7.4,1.3.9,1.6,1.5.4.7.5,1.3.5,2.2c0,.6-.1,1.2-.3,1.6s-.4.8-.7,1.1-.6.4-.9.7c.6.3,1.1.7,1.6,1.4.4.7.7,1.4.7,2.4c0,.8-.2,1.6-.6,2.3s-1,1.3-1.7,1.7-1.6.6-2.7.6h-6.2l-.2-.3v0Zm1.8-1.9h4.4c1,0,1.7-.3,2.2-.8s.8-1.2.8-1.9c0-.8-.3-1.5-.8-1.9-.5-.5-1.3-.8-2.2-.8h-4.4v5.4Zm0-7.2h4.2c1,0,1.7-.2,2.2-.7.5-.4.7-1,.7-1.9c0-.7-.2-1.3-.7-1.8-.5-.4-1.3-.6-2.2-.6h-4.2v5Z" fill="#c9d6eb"/><path d="M127.9,39.1c-.7,0-1.4-.1-2.1-.4-.6-.3-1.1-.7-1.5-1.2s-.6-1.1-.6-1.7c0-1,.4-1.9,1.3-2.5.8-.6,1.9-1,3.3-1.2l3.3-.4v-.7c0-.7-.2-1.3-.7-1.7-.4-.4-1-.6-2-.6-.7,0-1.3.1-1.6.4-.4.3-.7.6-.9,1-.1.2-.2.4-.4.4h-1c-.1,0-.3-.1-.4-.1-.1-.1-.1-.2-.1-.4s.1-.5.2-.8.4-.7.8-1s.8-.6,1.4-.8s1.3-.4,2.1-.4c.9,0,1.6.1,2.3.4.6.2,1.1.5,1.4.9.4.4.6.8.7,1.3s.2,1,.2,1.5v7.4c0,.1-.1.3-.1.4-.1.1-.2.1-.4.1h-1c-.1,0-.3-.1-.4-.1-.1-.1-.1-.2-.1-.4v-1c-.2.3-.4.5-.8.8-.3.2-.7.4-1.3.7-.4,0-1,.1-1.6.1Zm.4-1.7c.6,0,1.2-.1,1.7-.4s.9-.7,1.2-1.3.4-1.3.4-2.1v-.6l-2.6.4c-1,.1-1.9.4-2.5.7-.5.4-.8.8-.8,1.3c0,.4.1.7.4,1c.2.3.6.4,1,.6.4.3.8.4,1.2.4Z" fill="#c9d6eb"/><path d="M108.6,38.9c-.1,0-.2-.1-.3-.1-.1-.1-.1-.2-.1-.3s0-.1,0-.2l5.6-14.6c.1-.1.1-.3.2-.4s.3-.1.4-.1h1.6c.2,0,.4.1.4.1.1.1.2.2.3.4l5.6,14.6c0,.1.1.1.1.2s-.1.2-.1.3c-.1.1-.2.1-.3.1h-1.2c-.1,0-.3-.1-.4-.1s-.1-.1-.1-.2L119,35.4h-7.4l-1.3,3.2c0,.1-.1.1-.1.2-.1.1-.2.1-.4.1h-1.2Zm3.7-5.6h6.1l-3-8-3.1,8Z" fill="#c9d6eb"/><line x1="61.9" y1="21.6" x2="62.1" y2="38.5" fill="none" stroke="#c9d6eb" stroke-miterlimit="10"/><line x1="48.3" y1="71.9" x2="27.4" y2="92.3" fill="none" stroke="#c9d6eb" stroke-miterlimit="10"/><line x1="61.9" y1="77" x2="61.9" y2="94.3" fill="none" stroke="#c9d6eb" stroke-miterlimit="10"/><line x1="98.3" y1="58.2" x2="81.7" y2="58.3" fill="none" stroke="#c9d6eb" stroke-miterlimit="10"/><line x1="42.7" y1="58.2" x2="25.6" y2="58.2" fill="none" stroke="#c9d6eb" stroke-miterlimit="10"/><line x1="27.5" y1="23.3" x2="48.1" y2="44.2" fill="none" stroke="#c9d6eb" stroke-miterlimit="10"/><line x1="75.6" y1="71.9" x2="96.4" y2="92.5" fill="none" stroke="#c9d6eb" stroke-miterlimit="10"/><line x1="96.3" y1="23.3" x2="76" y2="44.4" fill="none" stroke="#c9d6eb" stroke-miterlimit="10"/><circle r="26.6" transform="translate(62 57.9)" fill="none" stroke="#c9d6eb" stroke-miterlimit="10"/><circle id="eXzL6VlBfFQ56" r="19.4" transform="translate(62 57.9)" fill="#fff" stroke="#c9d6eb" stroke-miterlimit="10"/><g id="eXzL6VlBfFQ57"><path d="M48.4,54.2h1.7v5.9h2.9v1.4h-4.6v-7.3Z" fill="#c9d6eb"/><path d="M60.7,57.8c0,2.4-1.5,3.9-3.6,3.9-2.2,0-3.4-1.6-3.4-3.7c0-2.2,1.4-3.8,3.6-3.8c2.2-.1,3.4,1.6,3.4,3.6Zm-5.3.1c0,1.4.7,2.4,1.8,2.4s1.8-1.1,1.8-2.5c0-1.3-.6-2.4-1.8-2.4-1.1,0-1.8,1.1-1.8,2.5Z" fill="#c9d6eb"/><path d="M67.9,61.2c-.5.2-1.5.4-2.4.4-1.3,0-2.3-.3-3-1-.7-.6-1-1.6-1-2.7c0-2.4,1.8-3.8,4.2-3.8.9,0,1.7.2,2,.4l-.3,1.3c-.4-.2-.9-.3-1.7-.3-1.4,0-2.4.8-2.4,2.4c0,1.5,1,2.4,2.3,2.4.4,0,.7,0,.8-.1v-1.5h-1.1v-1.3h2.7v3.8h-.1Z" fill="#c9d6eb"/><path d="M75.9,57.8c0,2.4-1.5,3.9-3.6,3.9-2.2,0-3.4-1.6-3.4-3.7c0-2.2,1.4-3.8,3.6-3.8c2.2-.1,3.4,1.6,3.4,3.6Zm-5.3.1c0,1.4.7,2.4,1.8,2.4s1.8-1.1,1.8-2.5c0-1.3-.6-2.4-1.8-2.4-1.1,0-1.8,1.1-1.8,2.5Z" fill="#c9d6eb"/></g><path d="M192.8,20.4h66.6c2,0,3.6,1.6,3.6,3.5v0c0,1.9-1.7,3.5-3.6,3.5h-66.6c-2,0-3.6-1.6-3.6-3.5v0c0-2,1.6-3.5,3.6-3.5Z" fill="#c9d6eb"/><path d="M92.5,93.9h-61.1c-3,0-5.5-2.4-5.5-5.5v-61c0-3,2.4-5.5,5.5-5.5h61.1c3,0,5.5,2.4,5.5,5.5v61.1c0,3-2.5,5.4-5.5,5.4Z" fill="none" stroke="#c9d6eb" stroke-miterlimit="10"/><path id="eXzL6VlBfFQ64" d="M208.2,172.7h-16.9c-1.5,0-2.7-1.2-2.7-2.7v-16.9c0-1.5,1.2-2.7,2.7-2.7h16.9c1.5,0,2.7,1.2,2.7,2.7v16.9c0,1.4-1.2,2.7-2.7,2.7Z" fill="#c9d6eb" stroke="#c9d6eb" stroke-miterlimit="10"/><path d="M208.2,142.3h-16.9c-1.5,0-2.7-1.2-2.7-2.7v-16.9c0-1.5,1.2-2.7,2.7-2.7h16.9c1.5,0,2.7,1.2,2.7,2.7v16.9c0,1.5-1.2,2.7-2.7,2.7Z" fill="none" stroke="#c9d6eb" stroke-miterlimit="10"/><path id="eXzL6VlBfFQ66" d="M238.4,172.7h-16.9c-1.5,0-2.7-1.2-2.7-2.7v-16.9c0-1.5,1.2-2.7,2.7-2.7h16.9c1.5,0,2.7,1.2,2.7,2.7v16.9c0,1.4-1.2,2.7-2.7,2.7Z" fill="none" stroke="#c9d6eb" stroke-miterlimit="10"/><path d="M238.4,142.3h-16.9c-1.5,0-2.7-1.2-2.7-2.7v-16.9c0-1.5,1.2-2.7,2.7-2.7h16.9c1.5,0,2.7,1.2,2.7,2.7v16.9c0,1.5-1.2,2.7-2.7,2.7Z" fill="none" stroke="#c9d6eb" stroke-miterlimit="10"/><path id="eXzL6VlBfFQ68" d="M268.7,172.7h-16.9c-1.5,0-2.7-1.2-2.7-2.7v-16.9c0-1.5,1.2-2.7,2.7-2.7h16.9c1.5,0,2.7,1.2,2.7,2.7v16.9c.1,1.4-1.2,2.7-2.7,2.7Z" fill="#fff" stroke="#c9d6eb" stroke-miterlimit="10"/><path d="M268.7,142.3h-16.9c-1.5,0-2.7-1.2-2.7-2.7v-16.9c0-1.5,1.2-2.7,2.7-2.7h16.9c1.5,0,2.7,1.2,2.7,2.7v16.9c.1,1.5-1.2,2.7-2.7,2.7Z" fill="none" stroke="#c9d6eb" stroke-miterlimit="10"/><path id="eXzL6VlBfFQ70" d="M299.4,172.7h-16.9c-1.5,0-2.7-1.2-2.7-2.7v-16.9c0-1.5,1.2-2.7,2.7-2.7h16.9c1.5,0,2.7,1.2,2.7,2.7v16.9c0,1.4-1.2,2.7-2.7,2.7Z" fill="#fff" stroke="#c9d6eb" stroke-miterlimit="10"/><path d="M299.4,142.3h-16.9c-1.5,0-2.7-1.2-2.7-2.7v-16.9c0-1.5,1.2-2.7,2.7-2.7h16.9c1.5,0,2.7,1.2,2.7,2.7v16.9c0,1.5-1.2,2.7-2.7,2.7Z" fill="none" stroke="#c9d6eb" stroke-miterlimit="10"/><path id="eXzL6VlBfFQ72" d="M329.6,172.7h-16.9c-1.5,0-2.7-1.2-2.7-2.7v-16.9c0-1.5,1.2-2.7,2.7-2.7h16.9c1.5,0,2.7,1.2,2.7,2.7v16.9c0,1.4-1.2,2.7-2.7,2.7Z" fill="#fff" stroke="#c9d6eb" stroke-miterlimit="10"/><path d="M329.6,142.3h-16.9c-1.5,0-2.7-1.2-2.7-2.7v-16.9c0-1.5,1.2-2.7,2.7-2.7h16.9c1.5,0,2.7,1.2,2.7,2.7v16.9c0,1.5-1.2,2.7-2.7,2.7Z" fill="none" stroke="#c9d6eb" stroke-miterlimit="10"/><g><path id="eXzL6VlBfFQ75" d="M41.9,124.5h-15.7v-13.3c0-1.7,1.4-3,3-3h12.7v16.3Z" fill="#c9d6eb" stroke="#c9d6eb" stroke-width="4"/><path d="M57.6,124.5h-15.7v-16.3h12.7c1.7,0,3,1.4,3,3v13.3Z" opacity="0.7" fill="#c9d6eb"/><rect id="eXzL6VlBfFQ77" width="15.7" height="16.3" rx="0" ry="0" transform="translate(26.2 124.5)" opacity="0.7" fill="#c9d6eb" stroke="#c9d6eb"/><rect width="15.7" height="16.3" rx="0" ry="0" transform="translate(41.9 124.5)" opacity="0.4" fill="#c9d6eb"/><rect id="eXzL6VlBfFQ79" width="15.7" height="16.3" rx="0" ry="0" transform="translate(26.2 140.9)" opacity="0.4" fill="#dde5f1"/><rect width="15.7" height="16.3" rx="0" ry="0" transform="translate(41.9 140.9)" opacity="0.2" fill="#c9d6eb"/><path id="eXzL6VlBfFQ81" d="M41.9,173.6h-12.7c-1.7,0-3-1.4-3-3v-13.3h15.7v16.3Z" opacity="0.2" fill="#c9d6eb" stroke="#c9d6eb"/><path d="M54.6,173.5h-12.7v-16.3h15.7v13.3c0,1.7-1.3,3-3,3Z" opacity="0.1" fill="#c9d6eb"/></g><path d="M233.8,130.9c0-.1,0-.2-.1-.3c0-.1-.1-.2-.2-.2l-4.5-4.2-4.5,4.2c-.1.1-.1.2-.2.2c0,.1-.1.2-.1.3v4.1c0,.2.1.4.2.5s.3.2.5.2h8c.2,0,.4-.1.5-.2s.2-.3.2-.5v-4.1h.2Z" transform="translate(.950001-.05)" fill="#c9d6eb"/><path d="M194.2,130.6l3.6-1.3l1.3-3.6c.1-.4.7-.4.8,0l1.3,3.6l3.6,1.3c.4.1.4.7,0,.8l-3.6,1.3-1.3,3.6c-.1.4-.7.4-.8,0l-1.3-3.6-3.6-1.3c-.4-.2-.4-.7,0-.8Z" fill="#c9d6eb"/><path id="eXzL6VlBfFQ85" d="M260.4,166l-4.8-4.3c-2.6-2.6,1.2-7.6,4.8-3.5c3.5-4,7.3,1,4.8,3.5l-4.8,4.3Z" fill="#c9d6eb"/><path d="M320.5,125.4c-.1,0-.1,0-.2,0s-.1,0-.2,0c0,0-.1.1-.1.1c0,.1,0,.1,0,.2c1.1,1.8,1.3,4.4-.2,5.8-.6-.5-1-1.1-1.3-1.7-.5.3-1,.7-1.3,1.3-.3.5-.5,1.1-.4,1.8c0,.5.2,1.1.4,1.6s.6.9,1,1.3.9.6,1.4.8s1.1.3,1.6.2c2.8,0,4.2-1.7,4.3-3.9.2-2.8-1.7-6-5-7.5Z" fill="#c9d6eb"/><path d="M296.2,128.4l-2.6,2.6-3-4.4-3,4.4-2.6-2.6v5.7c0,.3.1.7.4.9.2.2.6.4.9.4h8.7c.3,0,.7-.1.9-.4.2-.2.4-.6.4-.9v-5.7h-.1Z" fill="#c9d6eb"/><path d="M257.1,135.1c0,.2,0,.3.1.5.1.1.2.2.4.3.1.1.3.1.5.1s.3,0,.5-.1l6.7-4.1c.1-.1.3-.2.4-.3s.1-.3.1-.5s0-.3-.1-.5c-.1-.1-.2-.2-.4-.3l-6.7-4.1c-.1-.1-.3-.1-.5-.1s-.3,0-.5.1c-.1.1-.3.2-.4.3s-.1.3-.1.5v8.2Z" fill="#c9d6eb"/><path id="eXzL6VlBfFQ89" d="M286.8,160.8l3.5-4.8c.4-.5,1.1-.5,1.5,0l3.5,4.8c.2.3.2.7,0,1l-3.5,4.8c-.4.5-1.1.5-1.5,0l-3.5-4.8c-.2-.3-.2-.7,0-1Z" fill="#c9d6eb"/><path id="eXzL6VlBfFQ90" d="M316.6,159.5l3.7-3.4c.6-.6,1.6-.6,2.2,0l3.7,3.4c2.2,2.1-.1,6.4-3.5,4.6l.6,2.9h-3.7l.6-2.9c-3.5,1.8-5.8-2.5-3.6-4.6Z" fill="#c9d6eb"/><path id="eXzL6VlBfFQ91" d="M229.5,155.7c-1.3,0-2.4,1.1-2.4,2.4c0,.6.2,1.3.6,1.9-.5-.2-1-.3-1.4-.3-1.3,0-2.4,1.1-2.4,2.4s1.1,2.4,2.4,2.4c.6,0,1.4-.2,2-.6l-.6,3.1h3.7l-.6-3.1c.6.4,1.4.6,2,.6c1.3,0,2.4-1.1,2.4-2.4s-1.1-2.4-2.4-2.4c-.4,0-.9.1-1.4.3.4-.6.6-1.3.6-1.9-.1-1.3-1.2-2.4-2.5-2.4Z" fill="#c9d6eb"/><path id="eXzL6VlBfFQ92" d="M204.9,159.9c-.2-.6-.6-1-1.1-1.3s-1.1-.3-1.7-.1c-.2.1-.4.1-.6.3.1-.2.1-.4.1-.6c0-.6-.2-1.2-.7-1.6-.4-.4-1-.7-1.6-.7s-1.2.2-1.6.7c-.4.4-.7,1-.7,1.6c0,.2,0,.4.1.6-.2-.1-.4-.2-.6-.3-.3-.1-.6-.1-.9-.1s-.6.1-.8.2c-.3.1-.5.3-.7.5s-.3.5-.4.8-.1.6-.1.9.1.6.2.8c.1.3.3.5.5.7s.5.3.8.4c.2.1.4.1.6.1-.2.1-.3.3-.4.4-.2.2-.3.5-.4.8s-.1.6,0,.9.1.6.3.8.4.5.6.6c.5.3,1.1.5,1.7.4s1.1-.4,1.5-.9c.1-.2.2-.4.3-.6.1.2.2.4.3.6.4.5.9.8,1.5.9s1.2-.1,1.7-.4c.2-.2.4-.4.6-.6s.3-.5.3-.8s0-.6,0-.9c-.1-.3-.2-.6-.4-.8-.1-.2-.3-.3-.4-.4.2,0,.4,0,.6-.1.3-.1.5-.2.8-.4.2-.2.4-.4.5-.7s.2-.5.2-.8c.1-.3,0-.6-.1-.9Zm-5.5,3c-.7,0-1.3-.6-1.3-1.3s.6-1.3,1.3-1.3s1.3.6,1.3,1.3-.6,1.3-1.3,1.3Z" fill="#fff"/><path d="M255.3,112.9h-62.2c-1.8,0-3.3-1.5-3.3-3.3v-40.2c0-1.8,1.5-3.3,3.3-3.3h62.2c1.8,0,3.3,1.5,3.3,3.3v40.2c0,1.8-1.5,3.3-3.3,3.3Z" fill="#c9d6eb"/><path d="M251.3,93.4h-54.2c-1.8,0-3.3-1.5-3.3-3.3v-16.8c0-1.8,1.5-3.3,3.3-3.3h54.2c1.8,0,3.3,1.5,3.3,3.3v16.7c0,1.9-1.5,3.4-3.3,3.4Z" fill="#fff"/><path d="M329.6,112.9h-62.2c-1.8,0-3.3-1.5-3.3-3.3v-40.2c0-1.8,1.5-3.3,3.3-3.3h62.2c1.8,0,3.3,1.5,3.3,3.3v40.2c0,1.8-1.5,3.3-3.3,3.3Z" fill="#c9d6eb"/><g><circle r="7" transform="translate(299.5 26.7)" fill="#c9d6eb"/><g><path d="M330.8,26.2h-18.9c-1.3,0-2.4-1.1-2.4-2.4v0c0-1.3,1.1-2.4,2.4-2.4h18.9c1.3,0,2.4,1.1,2.4,2.4v0c0,1.4-1.1,2.4-2.4,2.4Z" fill="#c9d6eb"/><path d="M322.3,31.9h-11.4c-.7,0-1.3-.6-1.3-1.3v0c0-.7.6-1.3,1.3-1.3h11.4c.7,0,1.3.6,1.3,1.3v0c-.1.7-.6,1.3-1.3,1.3Z" fill="#c9d6eb"/></g></g><g><circle r="7" transform="translate(299.9 51.2)" fill="#c9d6eb"/><g><path d="M331.2,50.7h-18.9c-1.3,0-2.4-1.1-2.4-2.4v0c0-1.3,1.1-2.4,2.4-2.4h18.9c1.3,0,2.4,1.1,2.4,2.4v0c-.1,1.4-1.1,2.4-2.4,2.4Z" fill="#c9d6eb"/><path d="M322.6,56.4h-11.4c-.7,0-1.3-.6-1.3-1.3v0c0-.7.6-1.3,1.3-1.3h11.4c.7,0,1.3.6,1.3,1.3v0c0,.7-.6,1.3-1.3,1.3Z" fill="#c9d6eb"/></g></g><path id="eXzL6VlBfFQ106" d="M251.8,101.5h-53.871136c-1.2,0-2.2-1-2.2-2.2v0c0-1.2,1-2.2,2.2-2.2h53.871136c1.2,0,2.2,1,2.2,2.2v0c0,1.2-1,2.2-2.2,2.2Z" fill="#fff"/><path d="M252.2,108.7h-56.5c-1.2,0-2.2-1-2.2-2.2v0c0-1.2,1-2.2,2.2-2.2h56.5c1.2,0,2.2,1,2.2,2.2v0c0,1.2-1,2.2-2.2,2.2Z" fill="#fff"/><path d="M198.5,101.5h-2.9c-1.2,0-2.2-1-2.2-2.2v0c0-1.2,1-2.2,2.2-2.2h2.9c1.2,0,2.2,1,2.2,2.2v0c0,1.2-1,2.2-2.2,2.2Z" fill="#fff"/><path d="M326.3,74.2h-11.5c-1.2,0-2.2-1-2.2-2.2v0c0-1.2,1-2.2,2.2-2.2h11.5c1.2,0,2.2,1,2.2,2.2v0c0,1.2-1,2.2-2.2,2.2Z" fill="#fff"/><path d="M326.6,84.4h-26.5c-1.2,0-2.2-1-2.2-2.2v0c0-1.2,1-2.2,2.2-2.2h26.5c1.2,0,2.2,1,2.2,2.2v0c0,1.2-1,2.2-2.2,2.2Z" fill="#fff"/><path d="M326.6,92.5h-26.5c-1.2,0-2.2-1-2.2-2.2v0c0-1.2,1-2.2,2.2-2.2h26.5c1.2,0,2.2,1,2.2,2.2v0c0,1.2-1,2.2-2.2,2.2Z" fill="#fff"/><path id="eXzL6VlBfFQ112" d="M326.6,100.5h-56.396912c-1.2,0-2.2-1-2.2-2.2v0c0-1.2,1-2.2,2.2-2.2h56.396912c1.2,0,2.2,1,2.2,2.2v0c0,1.2-1,2.2-2.2,2.2Z" fill="#fff"/><path id="eXzL6VlBfFQ113" d="M326.6,108.5h-56.396912c-1.2,0-2.2-1-2.2-2.2v0c0-1.2,1-2.2,2.2-2.2h56.396912c1.2,0,2.2,1,2.2,2.2v0c0,1.2-1,2.2-2.2,2.2Z" fill="#fff"/><path d="M303,74.2h-2.9c-1.2,0-2.2-1-2.2-2.2v0c0-1.2,1-2.2,2.2-2.2h2.9c1.2,0,2.2,1,2.2,2.2v0c0,1.2-1,2.2-2.2,2.2Z" fill="#fff"/><rect width="101.7" height="22.6" rx="0" ry="0" transform="translate(126.7 167.5)" fill="url(#eXzL6VlBfFQ115-fill)"/><path id="eXzL6VlBfFQ116" d="M290.9,91.974224h-20c-1.8,0-3.3-1.5-3.3-3.3L267.6,72.8c0-1.8,1.5-3.3,3.3-3.3h20c1.8,0,3.3,1.5,3.3,3.3v15.874224c0,1.8-1.4,3.3-3.3,3.3Z" fill="#fff"/></g>
</svg>
